<svg width="17" height="21" fill="none" xmlns="http://www.w3.org/2000/svg"><path d="M7.402 8.311l-2.648-1.42L6.11 9.698a2.655 2.655 0 011.292-1.387m3.488 3.433l5.058-.909-4.998-.944a2.75 2.75 0 01-.06 1.853m-1.4-3.48l-.972-6.897-.905 6.85a2.507 2.507 0 011.878.047zm1.402 1.464l1.394-2.783-2.641 1.393c.568.295 1.011.79 1.247 1.39zm-4.734 2.155l-1.447 2.791 2.79-1.47a2.644 2.644 0 01-1.343-1.321m1.44 1.363l.906 6.412.879-6.409a2.5 2.5 0 01-1.785-.003m1.943-.062l2.692 1.49-1.376-2.846a2.65 2.65 0 01-1.316 1.356m-1.046.039a2.422 2.422 0 01-1.71-.741 2.476 2.476 0 01-.693-1.746 2.476 2.476 0 01.693-1.745 2.421 2.421 0 011.71-.741c.644.008 1.26.275 1.71.74.45.467.7 1.095.693 1.746a2.476 2.476 0 01-.693 1.746 2.421 2.421 0 01-1.71.74zm.008-4.754L6.577 11.97h3.836l-1.91-3.502z" fill="#fff"/><path d="M10.097 11.779L8.503 8.855 6.895 11.78h3.202zm-4.191-1.043c0-.307.051-.61.151-.9l-5.028.95 5.065.949a2.74 2.74 0 01-.188-1z" fill="#fff"/></svg>