<svg version="1.0" xmlns="http://www.w3.org/2000/svg" width="1120" height="1173.333" viewBox="0 0 840 880"><path d="M248.7 41c-10.8 2.8-20.1 10.6-25.1 21l-3.1 6.5v143l2.8 6c3.7 7.9 11.4 15.6 19.1 19.2 5.2 2.3 7.4 2.8 15.1 2.8 8.2 0 9.7-.3 15.6-3.2 8-3.9 15-11.1 18.7-19.1l2.7-5.7v-143l-2.7-5.8c-3.8-8-11.5-15.8-18.9-19.2-6.7-3-17.7-4.1-24.2-2.5zm325 0c-10.3 2.6-20.8 11.4-25.3 21.3l-2.9 6.2v143l2.7 5.7c3.7 8 10.7 15.2 18.7 19.1 5.9 2.9 7.4 3.2 15.6 3.2 8 0 9.7-.4 15.5-3.1 8.3-3.9 14.5-10.1 18.4-18.4l3.1-6.5v-143l-3.1-6.5c-6.2-12.9-17.8-20.8-31.6-21.5-4-.3-9 0-11.1.5z"/><path d="M79.6 116.7c-23.6 5-44.2 22-53.6 44.1-6.4 15.2-6-7.7-6 316.7 0 265.2.2 295.4 1.6 302.3 6.1 29.6 29.1 52.6 58.6 58.6 6.9 1.4 41 1.6 339.8 1.6 299.7 0 332.8-.2 339.8-1.6 28.6-5.9 51.1-27.6 58.3-56.4 1.2-4.6 1.4-53.9 1.4-305 0-281.5-.1-299.9-1.7-305.6-7.7-26.9-26.7-46-53.7-54.1-4.9-1.5-12.8-1.7-62.3-2l-56.8-.4V165h125v625H70V165h125v-50l-54.2.1c-44.1 0-55.6.3-61.2 1.6z"/><path d="M320 140v25h200v-50H320v25zM195 377.5V415h100v-75H195v37.5zm175 0V415h100v-75H370v37.5zm175 0V415h100v-75H545v37.5zm-350 125V540h100v-75H195v37.5zm175 0V540h100v-75H370v37.5zm175 0V540h100v-75H545v37.5zm-350 125V665h100v-75H195v37.5zm175 0V665h100v-75H370v37.5zm175 0V665h100v-75H545v37.5z"/></svg>