<svg width="182" height="246" fill="none" xmlns="http://www.w3.org/2000/svg"><path fill-rule="evenodd" clip-rule="evenodd" d="M76.502 46.223a2.03 2.03 0 00-2.037 2.016 2.03 2.03 0 002.037 2.02 2.029 2.029 0 002.034-2.02 2.027 2.027 0 00-2.034-2.016zm.844-1.09c.391.105.756.281 1.075.514l.761-.505-1.836-.01zm12.832-4.504l.55 7 .548-7h-1.098zm1.365-7.703h-1.609l-.805 3.214.805 3.216h1.61l.805-3.216-.806-3.214zm13.74 21.974a2.288 2.288 0 002.294-2.276c0-.683-.313-1.288-.796-1.702a3.254 3.254 0 01-3.216.217 2.222 2.222 0 00-.573 1.485 2.286 2.286 0 002.291 2.275zm2.817-10.06s-.381.173-.834.263c-.317.061-1.208.074-1.342.047.483.146.919.404 1.28.74.206-.422.516-.78.896-1.05zm-18.97 6.098a2.459 2.459 0 00-.72 1.734c0 1.367 1.122 2.478 2.498 2.478a2.49 2.49 0 002.496-2.478 2.49 2.49 0 00-2.496-2.477 2.5 2.5 0 00-1.758.72l-.02.023zm1.333 10.018h.556c4.29 0 7.363-.007 10.485-.502l2.038-.828a92.236 92.236 0 00-12.745-.86 94.11 94.11 0 00-12.719.84l2.205.898c3.026.449 6.02.452 10.18.452zm11.834-15.814l.76.503c.32-.233.683-.408 1.075-.512l-1.835.01zm-4.694 7.487a2.03 2.03 0 002.036 2.016 2.027 2.027 0 002.033-2.016c0-1.114-.912-2.02-2.033-2.02a2.03 2.03 0 00-2.035 2.02zM74.28 45.885a3.248 3.248 0 011.41-.768s-1.054.028-1.507-.054a4.631 4.631 0 01-.798-.22c.378.27.687.624.894 1.042zm37.702 18.325c.294-.336.439-.818.416-1.127v-.002a3.235 3.235 0 01-.134-.702c-2.981.666-6.255 1.172-9.981 1.79-1.884 1.245-4.73 2.87-9.256 5.226l1.995-.182c7.312-.223 14.936-2.69 16.96-5.004zm-35.56-9.583a2.287 2.287 0 002.366-2.199 2.218 2.218 0 00-.515-1.492 3.258 3.258 0 01-3.556-.003 2.237 2.237 0 00-.51 1.345 2.286 2.286 0 002.215 2.35z" fill="#FCD21F"/><path fill-rule="evenodd" clip-rule="evenodd" d="M85.017 125.935v-.018a20.02 20.02 0 0111.314-.023c.505.145 1 .308 1.487.492L93.72 99.314l-2.993-19.771-2.993 19.766c.008.002.017.005.027.005l-4.099 27.072c.444-.168.898-.316 1.355-.451z" fill="#FFFFFE"/><path fill-rule="evenodd" clip-rule="evenodd" d="M90.74 57.688v-.001h.102-.047c4.973-.011 9.939.38 14.719 1.143l1.049-.426c.001-.884.003-2.464.002-2.538a3.508 3.508 0 01-4.257-1.399 3.258 3.258 0 01-2.67 1.39c-1.795 0-3.255-1.447-3.255-3.224 0-1.782 1.46-3.228 3.255-3.228 1.106 0 2.081.55 2.67 1.388.082-.132.173-.258.273-.376a3.205 3.205 0 01-.786-1.498c-2.846.077-5.199.73-7.572 2.1.253.498.4 1.058.4 1.653 0 2.03-1.667 3.686-3.715 3.686-2.049 0-3.715-1.656-3.715-3.686 0-.536.117-1.044.325-1.503-2.465-1.478-4.886-2.172-7.84-2.251a3.22 3.22 0 01-.522 1.177c.237.274.429.584.571.92a3.252 3.252 0 012.807-1.61c1.795 0 3.255 1.446 3.255 3.228 0 1.777-1.46 3.224-3.255 3.224a3.254 3.254 0 01-2.942-1.865 3.516 3.516 0 01-3.21 1.847c-.718-.024-1.135-.229-1.477-.328v2.813l1.191.483a94.047 94.047 0 0114.644-1.12z" fill="#FCD21F"/><path fill-rule="evenodd" clip-rule="evenodd" d="M84.574 52.629a2.03 2.03 0 00-2.037-2.02c-1.12 0-2.031.905-2.031 2.02 0 1.111.911 2.016 2.031 2.016a2.027 2.027 0 002.037-2.016zM71.367 33.472l.833 1.942c.539.142 1.076.305 1.615.49l.96-.942-1.403-3.337-2.005 1.847zm32.797-1.024l1.691 1.678 1.384-3.295-1.738-1.6-1.337 3.217zm5.1 2.967l.836-1.943-2.006-1.847-1.403 3.336.963.947a24.848 24.848 0 011.61-.493zm-35.037-4.583l1.384 3.294 1.69-1.677-1.336-3.218-1.738 1.6zm1.841 4.381l.853 1.988c.28.136.56.27.84.419l1.246-1.066-1.252-3.015-1.687 1.674zm-.635 1.307l-.2-.473-.28.276c.16.063.32.13.48.196zm30.612 0c.16-.067.32-.134.479-.197h-.009l-.28-.276-.19.472zm-7.539 2.528l1.13 1.122h.01c.05-.038.102-.073.155-.11l1.354-3.206-1.48-1.284-1.17 3.478zm-6.633 10.066a3.711 3.711 0 011.718 1.012c2.545-1.481 5.126-2.213 8.162-2.3a3.2 3.2 0 01.53-1.394l-3.595-2.381s6.947.225 8.345 0c1.398-.223 1.635-.69 1.635-.69l-5.89-1.275 9.86-6.227c-7.001.768-14.281 5.404-20.765 13.255zm18.725-14.022c.353-.072.707-.146 1.059-.2l-.706-.642-.353.842zM97.606 41.76c.384-.32.772-.625 1.16-.924l-.648-.633-.512 1.557z" fill="#FCD21F"/><path fill-rule="evenodd" clip-rule="evenodd" d="M104.977 50.259a2.028 2.028 0 002.034-2.02 2.026 2.026 0 00-2.034-2.016 2.03 2.03 0 00-2.038 2.016 2.03 2.03 0 002.038 2.02zm-3.489-11.341c.401-.256.802-.503 1.205-.736l-.671-.573-.534 1.309zm-1.437-4.46l1.544 1.34 1.283-3.09-1.68-1.669-1.147 3.419zm2.412 2.1l1.25 1.068c.277-.146.556-.28.834-.416l.854-1.994-1.687-1.673-1.251 3.015zm34.487 105.448l7.809 1.479c-1.066-5.347-2.538-9.96-3.822-11.025-1.773-.089-3.402-.327-4.58-1.351l-.031.749c-.62 0-1.251-.018-1.877-.062 1.11 4.006 1.978 7.601 2.501 10.21zm-.892 18.826c.233-1.164.644-8.927.615-11.758l-6.75 1.227c-.127 2.141-.542 6.143-.542 6.143.683 3.368 3.648 11.86 3.965 12.775 1.202-1.843 2.021-4.938 2.712-8.387zm4.001 14.273a2.8 2.8 0 01.132-.109 14.103 14.103 0 014.438-2.258c.274-.934.509-1.913.714-2.917 1.307-6.426 1.237-14.155.242-21.486-.017-.122-.095-.639-.128-.862l-7.693 1.398c.055 2.593-.122 5.646-.391 9.105-.107 1.359-.443 3.823-.343 4.618.605 4.171 1.438 7.372 2.555 10.887.148.473.31 1.033.474 1.624zm-7.508-4.886c-.425-1.241-1.571-4.515-1.74-4.996-3.095-1.469-6.966-2.285-11.432-2.758.245.098.847.346.902.369 4.412 1.845 8.801 4.261 12.27 7.385zm-13.776-17.895l-7.5 1.364 3.608 7.138c2.315-.83 4.391-3.694 3.892-8.502zm34.179-42.77c-.295-2.568-8.987-10.31-8.989-10.304-.591 1.005-2.763 1.051-5.11.534.3.312 1.056 1.224 1.02 1.127 3.149 3.226 6.002 6.872 6.572 9.043 2.663.869 5.183 1.55 6.043.934.192-.137.521-.602.464-1.334zm-28.585 52.363c.937-.666 2.976-3.294 3.981-5.73a113.2 113.2 0 00.46-5.691l-7.841 1.425c1.534 3.243 2.595 6.829 3.4 9.996zm12.235-69.451c1.643.84 3.713 2.287 5.859 4.041.997.338 5.352.98 6.312-.018-3.276-2.304-6.757-3.998-9.591-4.36-.973.004-1.83.119-2.58.337zm24.785 39.041c-.078-.224-.598-1.599-.84-2.23-2.821-7.452-5.282-13.448-8.845-17.088-1.243.07-2.976-.354-5.349-1.123a1.72 1.72 0 01-.726.865c-.695.425-1.756.485-3.067.203 2.985 2.64 3.908 4.642 4.971 6.506 1.816 3.177 3.214 7.806 3.812 10.3 2.602 1.711 5.184 3.232 10.044 2.567zm-16.337-20.499c.229-.14.33-.342.33-.653v-.148c-.471-1.763-2.943-4.841-5.682-7.74-.461.365-4.449.38-6.413-.295.577.719 5.146 6.119 6.333 7.734 2.771 1.359 4.724 1.537 5.432 1.102zm-1.508 19.594c.094.469.17 1.896.17 1.896s-1.087.002-1.323 0c1.302 1.929 2.602 6.394 3.533 11.206l8.135 1.541c-.863-3.806-2.476-9.573-4.729-12.869a16.113 16.113 0 01-5.786-1.774zM85.951 78.898c-1.14-.567-2.313-1.149-3.467-1.59v8.471c.444.736 3.689 5.838 4.77 7.343l1.915-12.714c-.767-.343-2.47-1.14-3.218-1.51z" fill="#FCD21F"/><path fill-rule="evenodd" clip-rule="evenodd" d="M150.267 129.547c-.725-3.217-3.611-13.509-10.55-18.25-.217.817-.698 1.246-1.124 1.458-.714.354-1.606.416-2.72.045-.353-.117-1.577-.761-2.109-1.113.356.343 1.158.988 1.408 1.249 3.868 4.032 6.682 10.172 7.96 15.791l.105.459c2.414 1.477 4.52 2.148 7.452 2.24-.068-.162-.255-1.057-.422-1.879zm4.559 19.698s-.259-1.559-.633-3.354l-7.662 1.393c.027.161.09.521.092.539 5.347 6.008 8.774 5.374 8.774 5.374 0-.757-.571-3.952-.571-3.952zm-48.029-27.856l4.873-2.473-4.749-3.459-.124 5.932zm42.849-24.266c-1.254 1.128-3.096 1.008-5.498.716 4.035 3.521 8.03 7.865 9.754 11.164 2.262 1.121 3.904 1.913 4.774 1.56.363-.15.932-.595.893-1.201-.608-3.635-4.897-8.582-9.841-12.262.054-.061-.01-.043-.082.023zm5.444 64.504c0-.461 0-.923-.007-1.374-.041-2.755-.187-4.087-.36-5.985-2.572-.398-4.181-1.365-7.883-4.756.531 4.477 1.135 11.862-.243 19.664a47.958 47.958 0 01-.685 3.239 14.142 14.142 0 012.196-.271l.763-3.196.26-.315.949-1.151-1.373.503-.398.147.076-.414 1.086-5.973.075-.415.322.278 1.115.963-.47-1.401-.13-.384.402.073 4.305.768z" fill="#FCD21F"/><path fill-rule="evenodd" clip-rule="evenodd" d="M109.322 137.506l11.328-21.518s-21.835 10.794-21.777 10.823c4.58 2.156 8.563 5.994 10.449 10.695z" fill="#FFFFFE"/><path fill-rule="evenodd" clip-rule="evenodd" d="M98.99 85.78v-8.471c-1.152.44-2.325 1.022-3.466 1.59a93.89 93.89 0 01-3.221 1.492l1.915 12.706c1.078-1.498 4.331-6.583 4.773-7.318zm.332 39.378l4.988-2.505-2.818-4.462-2.17 6.967z" fill="#FCD21F"/><path fill-rule="evenodd" clip-rule="evenodd" d="M148.632 145.587s-39.204-7.588-39.182-7.528c.74 2.091 1.336 4.706 1.336 7.018 0 2.612-.437 5.108-1.356 7.396-.011.028 39.202-6.886 39.202-6.886z" fill="#FFFFFE"/><path fill-rule="evenodd" clip-rule="evenodd" d="M115.092 129.824c1.35.875 2.797.618 2.889.61-.153-1.663-.677-3.33-1.002-4.235l-1.887 3.625zm14.56 10.799l6.144 1.164c-.533-2.586-1.409-6.153-2.513-10.115-1.319-.183-2.564-.528-3.57-1.168l.114.927s-1.643.136-2.03.202c.894 2.837 1.522 6.237 1.855 8.99zm-11.916-15.871c.484 1.415.997 3.314 1.324 4.572.832 1.007 3.049 1.403 4.532 1.061-.873-3.847-2.381-7.171-3.644-9.885l-2.212 4.252zm-6.449 12.387l6.578 1.247c-.095-2.051-.343-4.954-.949-6.839-.464-.025-1.677-.393-2.363-.68l-3.266 6.272zm7.687 1.467l3.777.715c-.13-1.765-.795-6.759-1.009-7.801-.867-.135-1.514-.238-2.673-1.102.021.395.024.906.024.906-.205.137-.582.134-1.046.205.599 2.048.841 5.034.927 7.077zm23.558-7.191c-.079-.68-.157-1.825-.4-2.739-2.223-8.352-5.131-12.687-8.816-16.266-.838.845-2.817.798-4.282.573-.096.26-.257.482-.745.59 4.176 3.813 5.958 9.213 7.74 15.395.767 2.289 3.837 2.437 6.503 2.447zM78.79 38.182c.4.233.8.48 1.202.736l-.543-1.309-.66.573zm-8.97-3.29c.353.054.707.128 1.06.2l-.363-.842-.697.642zm-24.011 147.35c.754-.245 1.973-.917 2.635-1.676 2.237-2.283 3.356-5.175 4.903-7.86 1.46-2.527 2.963-5.113 5.153-7.448-5.515 2.7-10.113 5.544-12.845 10.485-.39.684-1.242 2.444-1.9 3.358-.636.884-2.782 2.886-2.782 2.886s.587.269 1.37.45c.784.181 2.519.114 3.466-.195zm16.29-19.777c-4.466.472-8.337 1.289-11.433 2.758-.168.481-1.316 3.755-1.74 4.996 2.855-3.024 7.86-5.54 12.27-7.386.056-.022.657-.27.903-.368zm-17.295-13.391c-.041 2.753.38 10.58.618 11.758.692 3.45 1.51 6.545 2.712 8.388.318-.916 3.282-9.407 3.967-12.775 0 0-.415-4.014-.538-6.142l-6.76-1.229zm25.399 4.619l-7.59-1.381c-.527 4.877 1.647 7.707 3.98 8.544l3.61-7.163zm-27.215 24.681c.49-.785 1.39-2.612 1.874-3.441.938-1.641 1.572-2.443 2.913-3.801 0 0-1.074-1.625-1.434-2.89-1.78 1.68-2.854 3.783-3.71 6.451l-1.926 6.022c.344-.339 1.666-1.349 2.283-2.341z" fill="#FCD21F"/><path fill-rule="evenodd" clip-rule="evenodd" d="M70.69 145.076c0-2.313.597-4.93 1.338-7.021.02-.06-39.184 7.531-39.184 7.531s39.214 6.914 39.203 6.885c-.92-2.287-1.356-4.783-1.356-7.395z" fill="#FFFFFE"/><path fill-rule="evenodd" clip-rule="evenodd" d="M63.496 130.435c.091.008 1.537.265 2.89-.61l-1.888-3.626c-.325.907-.85 2.574-1.002 4.236zm-8.695 1.336c-.878 2.736-1.488 5.975-1.826 8.63l4.627-.876c.127-1.864.916-7.042 1.006-7.932 0 0-.7-.043-1.411-.205l.021-.603c-.497.356-1.432.82-2.417.986zm15.394 5.368l-3.265-6.272c-.686.287-1.901.655-2.363.68-.607 1.887-.84 4.79-.934 6.834l6.562-1.242zM57.112 161.92c.802-3.166 1.86-6.757 3.392-9.997l-7.844-1.427c.103 1.835.284 4.009.47 5.694 1.004 2.436 3.045 5.064 3.982 5.73zm-26.325-30.494c2.932-.092 5.038-.764 7.452-2.24l.104-.459c1.278-5.619 4.092-11.759 7.96-15.791.25-.262 1.052-.906 1.408-1.249-.53.351-1.757.996-2.108 1.113-1.114.371-2.006.309-2.72-.046-.427-.211-.907-.64-1.124-1.457-6.94 4.741-9.825 15.033-10.55 18.25-.167.821-.356 1.717-.422 1.879zm27.1-1.041c1.483.342 3.7-.054 4.533-1.061.325-1.257.838-3.157 1.322-4.572l-2.213-4.252c-1.262 2.714-2.769 6.038-3.642 9.885zm-9.697-28.213c-1.962.676-5.952.66-6.413.295-2.739 2.899-5.212 5.977-5.681 7.74v.148c0 .311.1.513.33.653.708.435 2.66.257 5.432-1.101 1.187-1.616 5.755-7.016 6.332-7.735zm.007 29.501c-1.114 3.998-2.012 7.511-2.547 10.116l6.155-1.165c.33-2.756.977-6.138 1.878-8.991-.389-.066-2.03-.202-2.03-.202l.112-.927c-1.004.641-2.25.985-3.568 1.169zm74.117 57.537s1.943-.097 3.291-1.157c1.461-1.147 2.527-3.504 1.6-6.859-1.204-4.362-5.448-9.685-8.351-12.444 0 0 4.722 8.286 5.319 10.452.711 2.578.318 3.937-.041 5.378-.464 1.867-1.404 3.657-1.818 4.63zm13.394-13.467c-2.733-4.94-7.207-7.786-12.724-10.485 2.192 2.336 3.695 4.921 5.152 7.448 1.549 2.684 2.545 5.577 4.781 7.86.572.654 1.553 1.24 2.296 1.548.019-.064.036-.13.056-.193.309-.962 1.122-2.487 1.833-3.612-.54-.916-1.099-2.047-1.394-2.566zm8.387 18.523c1.278-.252 1.362-2.376.555-4.041-.551-1.143-2.245-3.65-2.245-3.65l-6.527-1.567c-.033.387-.054.776-.054 1.172 0 1.295.296 2.869.658 4.049 2.68-.061 6.334 4.289 7.613 4.037zm7.546-32.352l.992 3.105-2.424-2.064-.701 3.855 2.997-1.046-2.087 2.668 4.038.723-1.003-3.223 2.421 2.053.706-3.878-2.995 1.086 2.014-2.57-3.958-.709zm10.562-31.285c.201.419.425 1.744.425 1.744s-1.768.295-2.349.334c5.695 7.701 7.038 16.232 8.136 20.359.521 1.96 1.766 2.925 2.816 3.928.425.407 2.716 2.775 7.732 4.165.514.142 1.759.317 1.967.319-.492-5.794-1.401-10.683-2.544-14.92-.108-.399-.21-.805-.321-1.19a70.978 70.978 0 00-3.81-10.194c-.03.019-.921-1.713-1.338-2.55 0-.001-.003-.003-.003-.005-1.076.24-2.188.413-3.362.413-2.207 0-4.619-.592-7.349-2.403zM21.914 109.362c-.04.606.53 1.051.894 1.201.869.354 2.512-.439 4.775-1.56 1.724-3.298 5.718-7.643 9.754-11.164-2.402.292-4.245.411-5.5-.716-.073-.066-.136-.084-.081-.024-4.944 3.68-9.232 8.628-9.842 12.263zm47.9 9.553l4.873 2.473-.126-5.931-4.747 3.458zm7.354 3.739l4.99 2.505-2.1-6.968-2.89 4.463zm-41.163 24.819c-.031.231-.09.71-.111.864-.994 7.331-1.066 15.06.241 21.487.217.997.523 2.523.978 3.82.852 2.431 2.955 6.041 2.955 6.041.393-1.362 1.133-4.399 1.702-6.203 1.116-3.514 2.073-6.715 2.678-10.886.1-.795-.235-3.258-.343-4.617-.271-3.492-.452-6.484-.392-9.105l-7.708-1.401z" fill="#FCD21F"/><path fill-rule="evenodd" clip-rule="evenodd" d="M72.156 137.506c1.884-4.698 5.865-8.533 10.44-10.691.061-.03-21.768-10.827-21.768-10.827l11.328 21.518z" fill="#FFFFFE"/><path fill-rule="evenodd" clip-rule="evenodd" d="M62.499 168.75c-2.903 2.759-7.147 8.082-8.35 12.443-.929 3.356.138 5.712 1.599 6.86 1.348 1.06 3.29 1.157 3.29 1.157-.413-.974-1.353-2.763-1.818-4.63-.357-1.441-.75-2.8-.04-5.378.597-2.166 5.319-10.452 5.319-10.452zm-43.007-13.566c.49-.248.476-.832.41-1.259-.114-.727-.439-1.711-.606-2.123-.857-2.126-2.456-3.451-2.99-3.904-.373-.315-1.104-.549-1.104-.549a1.66 1.66 0 00-1.028.062l-.056.025a.985.985 0 00-.525.492c-.135.258-.303 1.162-.52 1.359a.504.504 0 01-.155.103c-.545.219-.55-1.494-.558-1.526.123-.123.743-.366 1.008-.675.149-.208.694-.914.696-1.322-.037-.613-.877-.615-1.468-.378a.762.762 0 01-.024.009.553.553 0 00-.642-.227c-.316.128-.76.721-.76.721.568-1.141-.341-2.477-1.583-2.041l-.536-1.24-.751.309-.756.298.483 1.259c-1.197.543-.913 2.131.295 2.558 0 0-.735-.119-1.05.008a.547.547 0 00-.303.607l-.024.008c-.59.237-1.192.817-.79 1.285.288.293 1.175.423 1.428.469.41.041 1.024-.213 1.198-.211.017.029 1.214 1.263.67 1.483a.56.56 0 01-.185.03c-.293.01-1.047-.523-1.326-.615a1.007 1.007 0 00-.722.008 1.64 1.64 0 00-.84.688s-.36.67-.406 1.154c-.066.694-.286 2.75.59 4.868.17.413.625 1.342 1.054 1.944.252.352.65.781 1.178.619.016-.004.034-.011.053-.018.575-.231 2.09-1.589 2.146-1.648.112.334 2.441 2.048 2.862 2.003-.015.063 2.291-.863 2.235-.898.335-.256.805-3.098.65-3.413.085.003 2.125-.068 2.7-.299l.052-.023zm26.734-62.129c-1.411.566-3.352 1.822-5.444 3.453 0 0-2.327 2.199-2.325 2.2.246.436 3.016.596 6.483-.756 1.25-1.154 2.361-2.104 3.153-2.694a4.864 4.864 0 00-.783-1.302 4.43 4.43 0 00-1.084-.901z" fill="#FCD21F"/><path fill-rule="evenodd" clip-rule="evenodd" d="M83.01 163.537c-3.004-1.244-5.673-3.279-7.73-5.729a19.855 19.855 0 01-2.867-4.55c-.032-.074-3.105 5.853-6.02 11.503l-5.606 10.045 15.349-7.783 6.874-3.486z" fill="#FFFFFE"/><path fill-rule="evenodd" clip-rule="evenodd" d="M75.826 154.301l14.948-26.149 14.814 26.149H75.826zm29.58 2.185a18.416 18.416 0 003.946-11.405c0-8.398-5.629-15.509-13.328-17.793a18.63 18.63 0 00-10.572-.014l.003.014c-7.698 2.284-13.33 9.395-13.33 17.793 0 4.299 1.478 8.256 3.947 11.405 3.418 4.315 8.704 7.164 14.638 7.164 5.966 0 11.281-2.808 14.696-7.164z" fill="#E7792B"/><path fill-rule="evenodd" clip-rule="evenodd" d="M52.06 184.65c2.055-9.652 8.102-15.536 11.906-18.606l.873-1.679 1.087-2.162c-1.368.469-2.76.983-4.153 1.561l-.043.019c-3.536 2.716-5.437 5.987-7.434 9.451-1.562 2.706-2.878 5.722-5.335 8.178-.618.637-1.39 1.024-2.436 1.579l-.794 5.509s5.867-1.678 6.33-3.85z" fill="#FCD21F"/><path fill-rule="evenodd" clip-rule="evenodd" d="M90.772 131.039l-12.479 21.833h24.845l-12.366-21.833z" fill="#0065A3"/><path fill-rule="evenodd" clip-rule="evenodd" d="M18.071 161.763l8.803 16.161c-1.096-4.636-1.582-10.296-1.573-15.828a43.34 43.34 0 01.038-1.688c.1-2.255.14-4.125.342-6.248l-.724-.126c.037-.575.192-1.796.185-1.788-1.73 1.626-3.04 2.663-4.358 3.337a2.002 2.002 0 01-.743.662 3.28 3.28 0 01-.15.065c-.394.159-1.431.239-2.064.293a7.928 7.928 0 01-.493 2.645l.133 1.489c.234.423.421.721.604 1.026zm14.013 24.852l3.826-13.041a53.949 53.949 0 01-1.033-4.398c-1.377-7.802-.773-15.187-.241-19.664-3.703 3.392-5.312 4.358-7.885 4.757-.17 1.898-.318 3.229-.36 5.985-.008.552-.01 1.116-.008 1.683-.009 7.514.886 15.347 3.06 20.559l2.64 4.119zM83.352 40.203l-.637.632c.387.3.774.605 1.16.925l-.523-1.557zm-3.038-3.349l1.353 3.197c.055.04.112.076.17.119l1.13-1.122-1.17-3.478-1.483 1.284zm-20.581 94.655c-.211 1.043-.874 6.032-1.002 7.797l3.782-.716c.087-2.035.322-5.042.916-7.071-.463-.073-.84-.069-1.046-.206 0 0 .004-.511.023-.907-1.159.866-1.804.968-2.673 1.103zm-42.646 15.474l.03.027c.642.542 2.347 1.984 3.298 4.344.193.479.549 1.553.678 2.386.016.112.018.21.026.314 1.18-.711 2.523-1.837 4.238-3.53.95-6.864 2.815-13.28 5.471-18.021-.237.009-1.398.012-1.398.012s.193-1.495.35-2.054c-1.948 1.212-4.133 2.244-7.32 2.278-2.232 3.603-4.24 6.101-6.491 13.613.328.134.783.348 1.118.631zm62.081-82.815c-3.726-.618-6.973-1.124-9.954-1.79-.021.274-.08.534-.163.783.001.028.009.053.007.082-.023.307.176.63.47.966 2.026 2.313 10.143 4.53 16.914 4.995l1.994.19c-4.263-2.054-7.35-3.937-9.268-5.226zm-.465-22.082l-5.89 1.275s.548.48 1.635.69c1.087.212 8.346 0 8.346 0l-3.6 2.384c.28.407.462.882.528 1.39 3.127.09 5.77.855 8.387 2.428a3.733 3.733 0 011.551-1.051c.006-.003.01-.005.014-.009-6.498-7.902-13.806-12.564-20.832-13.334l9.86 6.227zm55.467 51.87a4.85 4.85 0 00-.783 1.302c.792.59 1.903 1.54 3.154 2.695 3.466 1.351 6.236 1.191 6.483.756.001-.002-2.327-2.2-2.327-2.2-2.092-1.631-4.032-2.888-5.441-3.454a4.4 4.4 0 00-1.086.9zM26.654 149.245s-.57 3.195-.57 3.952c0 0 3.426.634 8.773-5.374l.081-.54-7.653-1.392c-.374 1.795-.631 3.354-.631 3.354zm26.491-20.027l-.266 1.333c2.044.538 3.486-.449 4.047-1.008 1.042-3.581 2.459-7.22 3.922-10.352l-1.796-3.449c-2.139 3.657-4.616 9.013-5.907 13.476zm-33.053 2.289c4.86.665 7.441-.856 10.045-2.567.598-2.494 1.995-7.123 3.811-10.3 1.063-1.864 1.985-3.866 4.97-6.506-1.31.282-2.37.222-3.064-.203a1.715 1.715 0 01-.727-.865c-2.373.769-4.107 1.193-5.352 1.123-3.562 3.64-6.02 9.636-8.842 17.088-.243.631-.763 2.006-.841 2.23zm33.599-18.771c.245.209 1.264.422 2.392.197a45.585 45.585 0 01-1.534-1.066c-.158.134-.626.661-.858.869zm-18.186 30.972c.935-4.88 2.272-9.262 3.588-11.21-.236.003-1.324 0-1.324 0s.077-1.427.17-1.896a16.114 16.114 0 01-5.785 1.774c-2.253 3.296-3.861 9.053-4.724 12.86l8.075-1.528zm9.619-12.599c-1.178 1.024-2.809 1.263-4.581 1.351-1.296 1.078-2.767 5.598-3.838 11.022l7.837-1.483c.523-2.627 1.369-6.162 2.489-10.202a26.82 26.82 0 01-1.877.061l-.03-.749zm8.066-17.535c-.489-.109-.65-.33-.745-.591-1.464.225-3.444.272-4.282-.573-3.685 3.579-6.593 7.914-8.816 16.267-.243.913-.322 2.059-.4 2.739 2.665-.01 5.735-.158 6.504-2.447 1.781-6.182 3.564-11.583 7.739-15.395z" fill="#FCD21F"/><path fill-rule="evenodd" clip-rule="evenodd" d="M57.258 113.867c-1.353.346-2.71.142-3.08.125-4.113 3.656-5.756 8.621-7.654 15.194-.086.328-.343 1.415-.305 1.582 2.225-.021 4.397-.492 5.9-1.931 1.513-5.229 3.903-10.617 6.31-14.3l-.022-.04-1.149-.63zM32.709 96.489c.958.998 5.314.356 6.31.017 2.147-1.754 4.218-3.201 5.861-4.04-.751-.218-1.607-.334-2.58-.337-2.835.361-6.315 2.056-9.591 4.36zm17.92 11.679c-.995 1.156-1.632 2.157-1.98 2.921-.33.725 1.136 1.078 1.51 1.139 0 0 2.245.231 2.987-.47.251-.227.455-.465.574-.562-1.006-.829-1.997-2.012-3.091-3.028zm27.965-75.456l1.284 3.091 1.545-1.341-1.148-3.419-1.681 1.669zm-49.607 78.176c.859.616 3.38-.064 6.043-.934.57-2.171 3.421-5.817 6.571-9.043-.036.097.72-.814 1.02-1.127-2.348.517-4.519.471-5.11-.534-.002-.007-8.693 7.737-8.99 10.304-.055.732.275 1.197.466 1.334zm13.935-9.502c.138.385 3.976.385 5.56-.471.236-1.817.221-3.333-.052-4.563-.776.598-4.657 4.165-5.508 5.034zm-.162 9.26c-.26.744.49 1.195.887 1.277.602.125 1.64.31 4.164-1.525.484-.708 1.44-1.848 2.14-2.999-1.238-1.326-1.53-2.427-1.808-2.938-1.979 1.783-4.73 4.753-5.382 6.185zm81.111 28.88l4.674.885c-.341-2.657-.991-5.913-1.866-8.64-.984-.166-1.919-.63-2.417-.986l.021.604c-.71.161-1.41.204-1.41.204.09.897.883 6.115.998 7.933zm-39.284-28.299c-.931 1.027-4.36 4.394-4.287 4.319l2.477 7.762 1.81-12.081zM19.944 128.8c2.743-7.244 5.173-13.118 8.638-16.915-.076-.041-.16-.072-.232-.123-.537-.383-.766-.95-.86-1.501-2.292 1.128-3.875 1.809-5.103 1.306-.556-.228-.994-.685-1.329-1.391-.186.097-.365.198-.54.295-1.217.674-2.302 1.254-4.319 1.343l-.017.029c-4.178 7.274-6.45 13.397-7.327 19.731 3.147.688 6.674.684 11.089-2.774zM8.317 160.693a2.039 2.039 0 01-.896-.349c-1.616.89-3.396 1.617-5.047 1.978-.488.107-1.876.244-1.9.247a118.855 118.855 0 00-.333 8.936c-.947 15.109 3.042 29.283 6.896 40.269l3.357-15.792-.01.002c-2.347-8.548-2.99-19.516-2.067-35.291z" fill="#FCD21F"/><path fill-rule="evenodd" clip-rule="evenodd" d="M6.637 159.556c-.001-.004-.004-.006-.006-.009-.491-.687-.99-1.703-1.188-2.182-.972-2.351-.758-4.563-.678-5.395l.004-.039c.065-.687.464-1.459.543-1.605l.014-.028.017-.026c.047-.078.096-.151.149-.222a2.034 2.034 0 01-.2-.176l-.028-.029-.025-.03a1.676 1.676 0 01-.372-1.511c.14-.575.556-1.026 1.016-1.336.07-.172.168-.332.291-.474a2.674 2.674 0 01-.12-.674 2.385 2.385 0 01.535-1.626l-.175-.457-.424-1.101 1.107-.436.739-.29.752-.309 1.099-.451.47 1.084.194.449a2.418 2.418 0 011.524.797c.157.175.285.366.387.566.188.02.371.066.543.14.547-.092 1.162-.054 1.665.259.29.181.5.441.634.741 1.183-3.843 2.99-8.281 6.093-12.479-.58-.039-2.348-.334-2.348-.334s.224-1.325.425-1.744c-2.73 1.81-5.141 2.403-7.349 2.403-1.173 0-2.286-.174-3.362-.414l-.002.007c-.418.836-1.309 2.568-1.34 2.549a71.134 71.134 0 00-3.809 10.194c-.11.385-.213.791-.321 1.19-1.141 4.238-2.052 9.126-2.544 14.92.208-.002 1.453-.178 1.966-.32a21.067 21.067 0 004.124-1.602zM48.144 93.24c2.73 3.01.76 9.253 1.045 10.885.496 2.265 3.326 4.64 5.625 6.559.731.667 3.73 2.724 6.014 3.841l7.59 3.682 7.446-5.523v9.3l.418.215 4.019-6.658-.808-12.872c-2.075 4.274-4.977 7.295-8.377 8.982-1.757.872-4.577 1.364-4.577 1.364s5.204-8.202 5.484-8.716c-2.101 1.23-5.908 2.613-7.486 3.044-.896.2-2.217.339-3.511-.096-.4-.135-2.703-1.14-4.827-3.52-1.137-1.369-2.51-3.596-2.772-5.453-.481-3.424-1.685-5.82-3.597-7.725-1.709-1.7-4.176-2.098-4.176-2.094-1.406-.31-2.977-.336-4.709-.068.15.722.81 1.86 1.555 2.658 2.537.042 4.394.815 5.644 2.195zm-28.161 16.287c.273-.152.564-.31.87-.468.664-3.534 4.329-8.064 8.803-11.712-2.004.274-3.585-.092-4.483-1.1-4.338 3.21-9.612 8.214-10.7 14.128.164.139.697.358 1.344.374 1.99-.027 2.958-.554 4.166-1.222zM31.667 95.77l.319-.105c3.095-2.188 6.38-3.846 9.232-4.442-.623-.802-1.162-1.772-1.336-2.586-3.432.973-8.77 3.41-13.804 6.97 1.116 1.103 3.532.847 5.589.162zm-15.046 73.765l-2.946-8.516a1.273 1.273 0 01-.191-.045c-.375-.093-.925-.359-1.883-1.045-.252-.18-.465-.342-.649-.488-.492.409-1.087.861-1.53 1.075-1.33 18.222.536 31.651 2.016 35.11 1.52 3.556 4.047 8.067 4.047 8.067l2.422-11.416 1.002-4.728c-1.653-4.391-2.198-10.419-2.274-15.923l-.014-2.091zm23.282 36.244c.425-.655.344-1.021.344-1.021-2.044 1.171-5.654 2.07-9.404 2.169 0 0-.14.395.343.676.482.284 3.336.24 4.806 0 1.471-.241 3.483-1.168 3.91-1.824zm.604-2.471c.253-1.118-.292-1.277-.292-1.277-3.834.748-6 .882-8.858.908-.536.004-1.544-.148-2.072-.452 0 0-.776 1.269-.526 2.187.248.919 1.524 1.167 1.524 1.167 4.42-.017 9.97-1.415 10.224-2.533zm-4.214 5.33s.596 3.888 1.43 5.294c.834 1.404 4.786 3.549 5.507 3.202.353-.17.661-.332.89-.441.617-.288.495-4.438-.299-5.951-.794-1.511-3.598-3.801-3.598-3.801-.927.75-2.352 1.229-3.93 1.697zm-14.397-24.004l-4.087-11.833c.057 2.353.252 5 .53 7.266a.016.016 0 00-.005.006c.314 2.565.81 4.992 1.595 7.081l3.118 6.188s.601-2.285.561-2.394c-.432-1.198-1.712-6.314-1.712-6.314zm14.089 12.845s-3.453-2.829-3.968-2.791c-.517.04-1.414 1.811-1.414 1.811s3.049 1.574 3.958 1.562c.911-.011 1.424-.582 1.424-.582zm-4.935-6.706c.376-.664.78-2.375.538-3.056-.244-.681-2.727-4.254-3.582-5.586-.697-1.09-8.937-16.335-11.914-21.85-.164.072-1.19.483-1.389.553 2.08 5.905 7.898 22.458 8.171 23.496.333 1.265 1.358 5.835 1.737 6.43.38.591 1.907 1.459 2.91 1.549 1.003.09 3.152-.876 3.53-1.536z" fill="#FCD21F"/><path fill-rule="evenodd" clip-rule="evenodd" d="M39.336 201.097c.833-.356.405-2.804-.562-2.841h-1.875s-.894.991-2.286.991c-1.394 0-4.739-1.872-4.739-1.872l-1.418.799s-1.027 1.405-.724 2.176c.304.772 2.698 1.514 3.176 1.511 2.67-.021 7.595-.407 8.428-.764zm1.252-1.271c.743-.717.983-.963 1.75-1.568h-2.295c.482.519.56 1.091.545 1.568zm31.176-151.14c.877 0 1.592-.707 1.592-1.573 0-.87-.715-1.578-1.592-1.578-.875 0-1.588.708-1.588 1.578 0 .866.713 1.573 1.588 1.573zm1.161-18.134l-1.667-3.966a9.764 9.764 0 00-1.157 1.05c-.293.32-.564.657-.812 1.015l1.623 3.758 2.013-1.857zm.516 18.776a2.804 2.804 0 01-1.677.56 2.8 2.8 0 01-1.147-.246 41.19 41.19 0 002.251 3.395c0-.012.118.141.294.377a3.405 3.405 0 01.679-3.325 3.277 3.277 0 01-.4-.76zm-4.42-2.798c.105-.483.336-.92.656-1.274l-1.908-2.518c.294 1.306.724 2.57 1.252 3.792zm1.039-13.34l-1.463-3.385c-.709 1.38-1.13 3.006-1.294 4.873.363.01.725.02 1.09.047l1.667-1.535zm-3.182 71.797c1.275-.064 3.503-.794 6.224-2.594l1.71-1.131s-4.736 8.458-5.83 10.095c4.553-1.446 8.266-5.483 10.546-11.526l1.07-2.327.766 15.184c1.152-1.188 2.422-2.306 3.468-3.485l1.366-9.059.777-5.164c-1.273-1.793-4.416-6.937-4.546-7.156-.314 5.01-1.924 8.541-4.897 10.758l-1.234.92s.968-2.95.662-6.698c-.123-1.526-.358-3.115-.653-4.72-.912 4.782-2.741 8.82-6.085 9.884-.26.465-.706 1.115-1.584 2.147-.004-.002-2.954 2.99-6.456 3.9 0 0 2.29 1.093 4.696.972zm1.784-62.873l1.885 2.492a2.8 2.8 0 011.216-.277c.02 0-1.298-1.46-1.298-1.46l5.359-1.315-8.593-5.421c-.004.2-.01.398-.008.605l5.502 4.363-4.063 1.013z" fill="#FCD21F"/><path fill-rule="evenodd" clip-rule="evenodd" d="M67.287 38.172c.017.248.02.485.044.74 0 .803.059 1.595.167 2.37l2.823-.704-3.034-2.406zm6.048 44.282c.23-2.729-.681-6.892-.681-6.892l1 .495c3.505 1.74 6.038 4.897 7.736 7.747v-8.012l.72.236c1.454.48 2.916 1.207 4.33 1.907.432.214.87.428 1.31.64-1.343-1.605-5.726-8.968-5.726-8.968l.038-.004c-5.32-.787-11.468-2.332-13.454-4.602a3.307 3.307 0 01-.371-.524c-.707.727-1.719 1.197-2.772 1.298.143 1.762.975 4.185 1.808 5.826l.057.117v2.765l.156.217c.03.039.056.078.084.117 1.36 1.889 2.49 3.547 1.701 5.457.68 1.316 2.14 4.154 2.497 7.306.878-1.296 1.39-3.025 1.567-5.126z" fill="#FCD21F"/><path fill-rule="evenodd" clip-rule="evenodd" d="M81.388 86.06c-1.425-2.794-3.782-6.38-7.226-8.486.345 2.063.42 3.908.253 5.538-.259 2.501-1.097 4.49-2.461 5.946-.072 2.746.065 4.468-1.13 7.519 2.933-1.517 4.108-6.277 4.87-11.466.01-.066.3-2.814.309-2.88 0 0 1.736 6.948 2 9.865.146 1.607.195 3.16.02 4.611 2.243-2.315 3.347-5.82 3.365-10.647zM64.89 64.723c1.562 0 3.242-1.034 3.246-2.597l-7.193-1.962c1.044 2.64 2.67 4.559 3.947 4.559zm68.106 36.198c1.585.857 5.422.857 5.562.471-.852-.868-4.732-4.434-5.509-5.033-.272 1.23-.287 2.746-.053 4.562zM66.24 71.973c-.854-1.719-1.737-4.27-1.87-6.22-1.965-.409-3.897-3.374-4.857-6.075-1.846-.658-3.41-1.341-4.704-2.053l11.43 15.383v-1.035zm-2.994-1.167l-9.827-13.224s-2.268-.822-6.29.778c-3.942 1.569-4.44 6.071-3.008 9.495a3.36 3.36 0 01.7-1.007c.713-.727 1.721-1.144 3.088-1.1 2.647.08 4.414.931 6.122 1.752.824.398 1.606.77 2.484 1.07 0 0 5.056 1.587 6.73 2.236z" fill="#FCD21F"/><path fill-rule="evenodd" clip-rule="evenodd" d="M61.17 71.204c-1.346-.392-4.417-1.4-4.417-1.4-.715.679-10.521 1.037-13.148.656-2.627-.383-4.609-1.519-7.632-2.92 3.169 4.963 8.638 7.503 16.265 7.59 1.063-3.012 4.813-4.016 8.932-3.926zm22.141-8.452c-.15-.05-.314-.106-.482-.166h-.002l-.005-.001c-6.082-2.131-23.033-9.658-24.503-9.776-1.512-.122-2.99 2.287-3.206 3.732 4.273 2.411 10.503 4.32 21.72 6.232 2.41.316 4.804.447 6.478-.02zm21.881 105.654l-6.17-3.289-.634 4.455-.177 1.216c9.484 1.7 14.475 6.422 14.956 10.521.996.026 1.908.116 2.738.277-.069-1.77-2.283-7.248-3.232-9.158l-7.481-4.022zm49.815 24.802c.107-1.286-2.884-4.297-2.884-4.297l-2.723-.653s1.167 1.781 1.224 3.67c.057 1.887-.612 3.796-.612 3.796 1.304-.145 4.889-1.232 4.995-2.516z" fill="#FCD21F"/><path fill-rule="evenodd" clip-rule="evenodd" d="M152.923 188.551s3.453 3.325 3.173 4.706c-.28 1.38-1.584 2.315-3.794 3.009-1.57.492-3.577.605-3.577.605s.841-2.729.914-4.864c.061-1.772-1.368-3.946-2.01-4.681-.642-.737-2.497-1.058-4.072-.937 0 0 2.074 2.535 2.46 4.178.494 2.103.128 4.217-1.403 4.762-1.53.548-6.427-4.138-7.797-3.957a1.839 1.839 0 00-1.106.574h.059c-.14.121-.256.254-.358.397a2.825 2.825 0 00-.287.645c-.006.025-.016.046-.02.071-3.233.128-6.596.131-7.139-.342-.991-.86.327-2.848 1.14-3.745.713-.787 1.592-1.4 1.592-1.4-1.074-.52-1.621-1.033-2.277-2.263 0 0-.258 2.288-2.435 3.737-2.531 1.687-4.307 1.345-4.307 1.345s-1.072 3.137-1.207 4.051c-.135.92.471 2.139 1.509 2.255 1.036.115 8.419-1.549 10.53-1.309 1.895.214 14.206 5.453 17.067 5.381 1.339-.035 4.884-1.256 6.056-2.116 1.17-.861 3.546-3.026 3.446-4.772-.1-1.748-1.934-3.986-1.934-3.986-.523-.969-2.903-1.463-4.223-1.344zm-29.462-6.752c.038-2.014-.978-4.069-1.459-4.637l-7.762-3.935c1.143 2.622 2.771 7.028 2.771 8.63 0 0 2.136.556 3.419 2.057.785.92 1.241 2.084 1.381 3.467.819-1.352 1.609-3.367 1.65-5.582zm-7.532 21.175c-2.767-3.376-5.549-5.242-8.264-7.733-2.964-2.723-5.773-5.289-8.414-7.53l-.185 2.601c7.471 4.677 14.958 16.477 15.208 33.393 1.962-3.464 4.257-7.221 4.305-11.909.028-2.677-1.078-6.956-2.65-8.822z" fill="#FCD21F"/><path fill-rule="evenodd" clip-rule="evenodd" d="M122.2 205.896c-1.542.101-2.85-.059-4.211-1.177 4.099 9.239-.391 15.737-2.884 19.677 1.918-.298 3.83-1.13 5.023-2.425 2.112-2.295 2.953-5.982 2.498-10.961l-.036-.37.338-.165c2.086-.881 4.801-2.951 4.881-5.607.027-.885-.045-1.698-.37-2.856-.659 2.707-4.057 3.81-5.239 3.884z" fill="#FCD21F"/><path fill-rule="evenodd" clip-rule="evenodd" d="M99.346 186.369c2.833 2.37 5.86 5.141 9.062 8.079 3.095 2.843 6.456 5.781 9.652 9.166 4.66 4.047 8.924-1.269 8.799-2.507-.577.536-2.028 1.208-3.688 1.004l-.132-.018c-2.531-.625-4.643-2.804-6.507-4.726-1.064-1.099-2.071-2.137-3.058-2.808-5.758 0-13.118-10.344-13.751-13.489l-.377 5.299z" fill="#FCD21F"/><path fill-rule="evenodd" clip-rule="evenodd" d="M98.042 171.957l-.464 3.322-4.421 31.06c4.808 10.028 7.355 22.151-1.766 35.928v1.857h.006v1.875a6.2 6.2 0 00.167-.181c.08-.088.173-.185.27-.286.185-.202.396-.427.62-.67.769-.824 1.695-1.828 2.323-2.661 2.288-3.034 2.818-3.46 3.37-4.446 3.694-10.139 6.431-22.216-.968-35.078l-.082-.143 1.99-28.047.927 2.478c.782 1.802 2.469 4.832 4.326 5.392.229.068.458.113.686.146a.049.049 0 01.004.011c1.334.156 2.66-.229 4.047-.597.97-.257 1.97-.512 2.982-.587-.634-5.018-7.261-8.102-14.017-9.373zm82.964-9.385c-.024-.002-1.413-.14-1.902-.248-1.98-.432-4.152-1.389-5.996-2.527 1.001 16.261.379 27.48-2.012 36.19l-.01-.002 3.356 15.793c3.853-10.986 7.842-25.161 6.896-40.27 0-3.205-.124-6.162-.332-8.936zM86.093 14.541h9.277l-3.591-6.454 6.291 3.696V2.74l-6.299 3.727L95.371 0h-9.24l3.561 6.46-6.282-3.72v9.027l6.294-3.676-3.611 6.45zM159.9 192.694c.314-.485.619-1.118.86-1.714l-2.065-.496c.468.47 1.205 2.21 1.205 2.21zm-21.859-13.702a12.736 12.736 0 00-2.018 4.945l5.818 1.425c2.162-.271 4.553.179 5.806.817 1.12.57 1.223.842 1.223.842l2.569.583c2.497-.381 5.473.542 6.524 1.583l3.164.776a12.77 12.77 0 00.472-5.349l-23.558-5.622zm25.591-6.952c.011-.746-.286-12.62-.346-15.902-2.439-.493-4.135-1.247-6.95-3.892-.006-.008.149 1.213.186 1.788l-.722.125c.199 2.123.241 3.994.34 6.249.021.458.031.932.035 1.413l.627.111.403.072-.259.316-.933 1.141 1.369-.51.4-.15-.076.416-1.088 5.983-.075.415-.321-.276-.348-.298c-.177 2.175-.39 3.951-.503 4.709 3.668 1.924 6.382 5.396 7.254 9.541.213-1.04.379-2.126.515-3.233.317-2.595.45-5.331.492-8.018z" fill="#FCD21F"/><path fill-rule="evenodd" clip-rule="evenodd" d="M171.949 158.991c-.94-.726-1.508-1.087-3.156-3.1-.703.281-2.762.431-4.288.309.039 2.304.244 12.523.244 12.555.022 4.074-.071 8.477-.656 12.493-.272 1.865-.648 3.647-1.169 5.27-.015.634-.073 1.26-.17 1.869l.574 2.708 2.67 12.592s2.529-4.51 4.047-8.066c1.521-3.553 3.454-17.634 1.904-36.63zm-73.564 40.833l-.174 2.463c6.358 11.16 5.339 21.692 2.593 30.93 8.766-6.273 2.354-24.223-2.419-33.393zm-34.892 4.895c-1.36 1.118-2.67 1.278-4.212 1.177-1.181-.074-4.58-1.177-5.238-3.884-.326 1.158-.396 1.971-.37 2.856.08 2.656 2.795 4.726 4.88 5.607l.337.165-.034.37c-.455 4.979.385 8.666 2.499 10.961 1.193 1.295 3.104 2.129 5.021 2.425-2.493-3.94-6.982-10.438-2.883-19.677z" fill="#FCD21F"/><path fill-rule="evenodd" clip-rule="evenodd" d="M82.42 190.313l-.185-2.602c-2.642 2.242-5.45 4.808-8.414 7.53-2.714 2.492-5.496 4.358-8.264 7.733-1.572 1.866-2.679 6.144-2.65 8.823.05 4.688 2.344 8.445 4.305 11.909.249-16.918 7.739-28.716 15.208-33.393z" fill="#FCD21F"/><path fill-rule="evenodd" clip-rule="evenodd" d="M82.78 195.401l-.273-3.835c-7.156 4.814-14.188 16.762-14.23 33.26l.015.036c1.43 3.778 3.114 6.924 5.7 9.17-5.037-19.467.81-34.053 8.787-38.631zm.365-24.603l-.255-1.744-.522-3.554-5.24 2.657-8.447 4.281c-.947 1.911-3.16 7.388-3.23 9.158a16.704 16.704 0 012.738-.277c.482-4.099 5.472-8.821 14.956-10.521zm-23.796 6.364c-.482.568-1.496 2.623-1.46 4.637.04 2.216.833 4.229 1.65 5.582.14-1.383.596-2.547 1.382-3.467 1.282-1.5 3.418-2.057 3.418-2.057 0-1.602 1.628-6.008 2.77-8.63l-7.76 3.935z" fill="#FCD21F"/><path fill-rule="evenodd" clip-rule="evenodd" d="M82.949 197.767l-.082-1.158c-7.585 4.667-12.847 19.326-7.45 38.494 1.794 1.186 3.963 2.024 6.677 2.428a92.118 92.118 0 01-.923-2.718c-11.713-6.377-3.143-27.939 1.778-37.046zm-19.525 5.836c3.199-3.385 6.557-6.323 9.652-9.166 3.202-2.939 6.23-5.71 9.063-8.08l-.376-5.298c-.633 3.145-7.993 13.488-13.753 13.488-.985.672-1.993 1.712-3.057 2.809-1.864 1.923-3.977 4.1-6.507 4.726l-.132.019c-1.66.202-3.11-.469-3.686-1.006-.126 1.239 4.137 6.554 8.796 2.508z" fill="#FCD21F"/><path fill-rule="evenodd" clip-rule="evenodd" d="M96.93 169.53l.816-5.727a20.038 20.038 0 01-7.033 1.269c-2.506 0-4.906-.463-7.12-1.302l.773 5.264.87 5.922 5.541 37.746 5.44-38.173.713-4.999z" fill="#FFFFFE"/><path fill-rule="evenodd" clip-rule="evenodd" d="M98.616 196.609l-.083 1.158c4.92 9.109 13.49 30.671 1.778 37.047a86.579 86.579 0 01-.924 2.719c2.714-.404 4.883-1.244 6.679-2.429 5.396-19.165.134-33.826-7.45-38.495zm-5.742 11.7l-1.483 10.423v21.497c7.3-12.047 5.528-22.852 1.483-31.92zm-37.503-19.262c-2.178-1.45-2.434-3.738-2.434-3.738-.658 1.231-1.205 1.743-2.28 2.263 0 0 .88.614 1.593 1.4.813.897 2.132 2.885 1.142 3.746-.992.862-11.375.135-13.209-.015-1.833-.151-7.086-1.126-7.929-1.054-.843.071-2.868.954-3.873 1.769-1.009.815-1.2 2.398-.95 3.121.246.724.562.754 1.094.559.534-.196.92-.721.92-.721s1.347-2.608 2.319-2.799c1.238-.242 4.61 2.94 5.685 3.419 1.074.481 5.697.485 6.82.174 1.125-.313 2.682-1.568 4.576-1.782 2.112-.24 9.495 1.423 10.531 1.307 1.037-.115 1.644-1.334 1.509-2.251-.136-.918-1.206-4.053-1.206-4.053s-1.776.342-4.308-1.345zm34.717 51.207v-22.179l-1.448-9.852c-4.075 9.093-5.893 19.938 1.448 32.031z" fill="#FCD21F"/><path fill-rule="evenodd" clip-rule="evenodd" d="M88.353 206.273l-4.464-30.397-.575-3.919c-6.758 1.27-13.384 4.355-14.02 9.373 1.013.075 2.013.329 2.983.586 1.433.382 2.8.786 4.18.587a4.83 4.83 0 00.686-.146c1.859-.56 3.542-3.59 4.327-5.392l.926-2.479 1.99 28.048-.083.143c-7.397 12.86-4.661 24.939-.968 35.078.554.986 1.084 1.412 3.371 4.445.85 1.128 2.238 2.561 3.046 3.442.059.062.116.121.166.176.059.067.115.126.168.181v-3.709c-9.158-13.817-6.566-25.971-1.733-36.017zm10.623-14.707l-.27 3.835c7.974 4.576 13.822 19.164 8.784 38.633 2.587-2.248 4.272-5.394 5.701-9.172l.013-.036c-.04-16.498-7.071-28.444-14.228-33.26z" fill="#FCD21F"/><path fill-rule="evenodd" clip-rule="evenodd" d="M80.675 233.217c-2.746-9.238-3.766-19.77 2.594-30.93l-.175-2.463c-4.772 9.17-11.185 27.12-2.42 33.393zM66.6 75.33l-.252-.348-1.761-2.372c-4.757-.756-10.523-.362-11.424 3.21-.607 2.414-.477 4.702.402 6.955 1.643-3.657 3.57-5.745 7.577-5.751h.016c2.782 0 5.37.85 7.257 2.355.204-1.117-.494-2.21-1.72-3.916-.032-.046-.063-.087-.095-.134zm53.937-15.166c-2.085.68-4.48 1.333-7.193 1.963.004 1.563 1.684 2.596 3.245 2.596 1.276 0 2.903-1.919 3.948-4.559zm-3.641 12.446l-1.763 2.371-.251.348c-.032.045-.061.087-.093.13.002 0 .004.002.005.004-1.227 1.705-1.923 2.798-1.72 3.916 1.835-1.464 4.336-2.302 7.031-2.347v-.001c.073 0 .145-.007.218-.007h.024v.001c4.002.007 5.927 2.095 7.568 5.75.88-2.253 1.01-4.54.403-6.956-.9-3.57-6.666-3.964-11.422-3.21zm-3.156 2.445c-.001-.003-.003-.004-.005-.005l.254-.353.157-.217v-2.767l.056-.116c.833-1.64 1.665-4.064 1.81-5.826-1.045-.1-2.048-.562-2.754-1.279a2.864 2.864 0 01-.358.505c-1.987 2.272-8.144 3.817-13.468 4.606h.02s-4.383 7.363-5.725 8.968c.44-.212.877-.426 1.31-.641 1.414-.7 2.875-1.426 4.328-1.906l.72-.236V83.8c1.698-2.85 4.231-6.008 7.736-7.748l1.002-.495-.221 1.087c-.449 2.222-.473 4.256-.454 5.805.073 2.12.688 3.83 1.568 5.126.354-3.151 1.816-5.99 2.495-7.306-.754-1.828.249-3.427 1.529-5.215z" fill="#FCD21F"/><path fill-rule="evenodd" clip-rule="evenodd" d="M107.136 83.61c-.021.012-.298-2.815.185-6.036-3.446 2.105-5.802 5.691-7.227 8.486.018 4.827 1.121 8.332 3.366 10.646-.178-1.468.007-3.972.175-5.562.463-3.43 1.345-7.1 1.85-8.913.01.065.3 2.814.31 2.88.762 5.188 2.004 10.458 5.052 11.586-1.126-2.839-1.24-4.893-1.311-7.64-1.293-1.38-2.293-3.842-2.4-5.448zm-10.243 27.617l1.808 12.081s2.551-7.758 2.548-7.762c-1.029-1.03-3.425-3.292-4.356-4.319zm23.418-40.023c4.119-.09 7.869.914 8.931 3.927 7.628-.088 13.097-2.628 16.265-7.592-3.023 1.402-5.004 2.538-7.633 2.921-2.625.38-12.431.023-13.147-.656 0 0-3.071 1.008-4.416 1.4z" fill="#FCD21F"/><path fill-rule="evenodd" clip-rule="evenodd" d="M105.181 88.084c-.295 1.604-.528 3.12-.646 4.645-.291 4.68.646 6.773.646 6.773l-1.233-.92c-2.972-2.216-4.583-5.747-4.897-10.758-.13.22-3.295 5.385-4.547 7.157l.604 4.01 1.54 10.212c1.047 1.179 2.389 2.297 3.538 3.485l.698-15.184 1.068 2.327c2.279 6.042 5.992 10.08 10.548 11.526-1.096-1.637-5.832-10.096-5.832-10.096l1.711 1.132c2.72 1.8 4.949 2.529 6.223 2.595 2.406.121 4.697-.974 4.697-.974-3.443-.71-5.492-2.654-6.96-4.555-.22-.284-.71-1.156-.873-1.389-3.999-.867-5.374-5.204-6.285-9.986z" fill="#FCD21F"/><path fill-rule="evenodd" clip-rule="evenodd" d="M114.936 113.019s-2.819-.492-4.575-1.364c-3.4-1.688-6.304-4.709-8.377-8.982l-.738 12.871 3.949 6.658.418-.215v-9.299l7.445 5.523 7.59-3.682c2.285-1.119 5.283-3.174 6.014-3.842 2.3-1.918 5.129-4.293 5.625-6.558.284-1.632-1.684-7.875 1.044-10.886 1.251-1.38 3.109-2.152 5.646-2.194.745-.8 1.404-1.936 1.553-2.658-1.731-.267-3.301-.242-4.706.067-.002-.003-2.47.395-4.177 2.094-1.913 1.906-3.116 4.302-3.598 7.726-.262 1.856-1.634 4.083-2.772 5.453-2.123 2.379-4.426 3.384-4.826 3.519-1.295.436-2.617.296-3.513.096-1.577-.432-5.384-1.813-7.485-3.044.279.514 5.483 8.717 5.483 8.717zm-2.48-66.509c.523-1.21.949-2.461 1.24-3.756l-1.891 2.497c.317.353.545.784.651 1.26zm-2.739-.975c-.877 0-1.588.708-1.588 1.578 0 .866.711 1.573 1.588 1.573.876 0 1.589-.707 1.589-1.573 0-.87-.713-1.578-1.589-1.578zm4.256-4.259c.108-.774.168-1.565.168-2.367.022-.253.027-.487.043-.733l-3.024 2.399 2.813.7zm-9.343 21.481c11.219-1.913 17.464-3.8 21.737-6.211-.214-1.446-2.42-3.718-3.379-3.698-.961.02-19.238 8.038-24.844 9.909 1.72.424 3.883.438 6.486 0zm12.48 2.996c-.132 1.95-1.015 4.501-1.868 6.22v1.035l11.432-15.383c-1.295.71-2.861 1.395-4.705 2.053-.962 2.701-2.892 5.667-4.859 6.075zm-9.074-16.425a3.147 3.147 0 01-.382.74 3.443 3.443 0 011.14 2.554c0 .051-.007.104-.008.155a42.157 42.157 0 001.865-2.81c.065-.099.132-.208.2-.32a2.807 2.807 0 01-2.815-.319zm16.928 19.238c.876-.299 1.659-.671 2.483-1.069 1.709-.822 3.475-1.672 6.121-1.751 1.368-.046 2.389.288 3.202.978.317.27.469.45.657.853 1.096-4.153.619-7.96-3.078-9.22-3.698-1.26-6.29-.778-6.29-.778l-9.827 13.224c1.676-.65 6.732-2.237 6.732-2.237zm9.714 119.626c-.018-.047-.031-.097-.052-.142l.115.045a13.698 13.698 0 01-.138-1.923c0-.715.097-1.744.293-2.765l-.06-.417c-1.046-.555-1.818-.943-2.436-1.579-2.458-2.456-3.651-5.472-5.213-8.178-1.996-3.463-3.897-6.735-7.433-9.451l-.043-.019a70.693 70.693 0 00-4.152-1.56l.999 2.233.839 1.607c3.804 3.07 9.847 8.954 11.903 18.606.346 1.623 3.7 2.966 5.378 3.543zm-14.049-69.005c1.463 3.132 2.88 6.771 3.922 10.352.562.559 2.003 1.546 4.047 1.009l-.266-1.334c-1.291-4.463-3.768-9.819-5.908-13.476l-1.795 3.449z" fill="#FCD21F"/><path fill-rule="evenodd" clip-rule="evenodd" d="M111.223 42.971s-1.527 1.35-1.507 1.35c.437 0 .847.102 1.216.278l1.886-2.491-4.063-1.014 5.492-4.355v-.008c.001-.204-.003-.4-.008-.598l-8.661 5.49 5.645 1.348zm11.849 71.526l-.021.04c2.406 3.683 4.795 9.07 6.308 14.299 1.504 1.439 3.676 1.91 5.901 1.932.037-.167-.221-1.254-.305-1.583-1.898-6.573-3.543-11.538-7.654-15.193-.369.017-1.728.22-3.08-.125l-1.149.63z" fill="#FCD21F"/><path fill-rule="evenodd" clip-rule="evenodd" d="M120.573 174.806l-5.608-10.044c-2.914-5.651-5.863-11.577-5.895-11.504a19.87 19.87 0 01-2.867 4.551 20.374 20.374 0 01-7.39 5.556l7.409 3.948 14.351 7.493z" fill="#FFFFFE"/><path fill-rule="evenodd" clip-rule="evenodd" d="M75.524 28.156l-1.334-3.215a12.82 12.82 0 00-2.016.996l1.607 3.825 1.743-1.606zm58.146 82.241c2.524 1.836 3.56 1.651 4.164 1.525.397-.082 1.147-.533.886-1.277-.653-1.431-3.403-4.401-5.384-6.184-.277.51-.569 1.612-1.807 2.938.701 1.151 1.656 2.291 2.141 2.998zm-5.912.799c.117.097.322.335.573.562.741.7 2.986.47 2.986.47.376-.061 1.843-.414 1.511-1.139-.348-.763-.984-1.765-1.978-2.921-1.096 1.016-2.087 2.199-3.092 3.028zm21.005 62.148a12.95 12.95 0 00-10.017 4.712l22.662 5.407c-1.256-5.784-6.439-10.119-12.645-10.119zm16.521-61.53c-2.018-.09-3.102-.669-4.32-1.343a18.956 18.956 0 00-.539-.295c-.336.706-.773 1.163-1.328 1.39-1.229.504-2.812-.178-5.104-1.305-.095.55-.324 1.118-.86 1.501-.072.051-.156.082-.233.123 3.467 3.797 5.897 9.67 8.639 16.915 4.415 3.458 7.942 3.462 11.087 2.774-.876-6.334-3.146-12.458-7.325-19.731-.007-.009-.011-.02-.017-.029zm-3.373 42.98c.386.126 1.515.348 1.89.389.401.043 3.121.334 3.897-.102-.066-.388-.38-1.767-.437-2.018-3.004-13.041-5.448-15.813-8.242-20.324-3.185-.034-5.37-1.065-7.319-2.278.156.56.35 2.055.35 2.055s-1.162-.004-1.398-.012c2.655 4.741 4.521 11.157 5.47 18.02 2.507 2.477 4.228 3.755 5.789 4.27zM151.82 97.34c4.475 3.647 8.138 8.177 8.803 11.712.305.157.595.315.87.468 1.208.668 2.177 1.195 4.167 1.221.645-.015 1.179-.235 1.344-.373-1.088-5.915-6.364-10.919-10.7-14.13-.899 1.01-2.48 1.376-4.484 1.102zm-2.328-1.675l.319.104c2.058.685 4.473.94 5.59-.162-5.035-3.56-10.372-5.997-13.805-6.97-.174.815-.712 1.784-1.334 2.587 2.848.595 6.137 2.253 9.23 4.44zm-11.631 81.554c.168-.203.711-.749 1.266-1.274l-.4-1.252c-.569-2.693-1.807-4.771-3.586-6.451-.36 1.265-1.496 2.986-1.496 2.986 1.341 1.357 1.913 2.064 2.851 3.704.323.556.834 1.555 1.282 2.393.028-.036.056-.076.083-.106zm11.385-5.073c1.809.06 3.533.454 5.109 1.126.108-.754.308-2.31.391-3.089l-4.917-.831-.583 2.794zm-22.315-60.279a44.702 44.702 0 01-1.533 1.065c1.127.226 2.147.014 2.39-.196-.232-.208-.7-.735-.857-.869zM86.89 26.152l.45 2.52.584-1.73-1.033-.79zm1.504 8.424l.523-2.09-1.22-1.818.697 3.908zm3.286-2.731l1.58-2.356-.74-2.2h-3.56l-.74 2.2 1.582 2.356h1.878zm-6.258-13.943l.245 1.38.926-1.38h-1.171zm3.31 3.613h4.017L95 20.028l-1.426-2.126h-5.662l-1.427 2.126 2.248 1.487zm.496 25.481l-1.776-6.172-2.175 2.152a49.979 49.979 0 013.951 4.02zm-3.251-26l.488 2.746 1.209-1.62-1.697-1.126zm-5.524 2.625c-.506.035-.988.094-1.469.154l.31.916 1.16-1.07zm-2.31 7.995l1.746-1.733-1.095-3.258-1.97 1.815 1.32 3.176zm.271-6.112l-.526-1.567c-.954.164-1.851.369-2.675.632l1.166 2.81 2.035-1.875zm6.597 16.203l2.099-2.075-.707-2.456-2.184 2.166.793 2.365zm11.044-23.805h-1.172l.926 1.38.246-1.38zM83.829 38.19l2.226-2.21-.947-3.285-2.42 2.098 1.14 3.397zm-1.516-4.507l2.462-2.135-1.114-3.872-2.524 2.505 1.176 3.502zm-1.56-4.657l2.566-2.547-.85-2.948c-.115.001-.22.013-.334.014l-2.461 2.267 1.079 3.214zM98.78 34.8l-2.419-2.097-.947 3.285 2.227 2.21 1.14-3.398zm4.548-3.184l1.319-3.176-1.97-1.815-1.095 3.258 1.746 1.733zm-.844-7.841c-.479-.06-.96-.118-1.468-.154l1.16 1.07.308-.916zm-.689 2.037l-2.46-2.267c-.116-.002-.22-.013-.336-.014l-.849 2.948 2.566 2.547 1.079-3.214zm-1.464 4.368l-2.524-2.504-1.116 3.87 2.463 2.137 1.177-3.502zm10.225 2.23l1.623-3.76a9.692 9.692 0 00-.813-1.013 9.822 9.822 0 00-1.157-1.051l-1.666 3.966 2.013 1.857zm-2.867-2.648l1.607-3.825a12.843 12.843 0 00-2.014-.996l-1.335 3.215 1.742 1.606zm-1.432-5.192a19.79 19.79 0 00-2.674-.633l-.526 1.567 2.034 1.875 1.166-2.81zm-15.505-1.925h-.022l-1.966.034-1.752 2.184 1.742 1.34h3.974l1.743-1.34-1.752-2.184-1.967-.034zm3.385 6.027l.45-2.52-1.032.79.582 1.73zm18.941 6.053h.01c.36-.029.721-.038 1.079-.048-.165-1.867-.584-3.493-1.294-4.872l-1.463 3.384 1.668 1.536zm-19.994-.149l.697-3.908-1.22 1.818.523 2.09zm1.929-10.834l.49-2.746-1.68 1.126 1.19 1.62zM92.25 46.996c1.29-1.463 4.058-4.127 3.94-4.02l-2.17-2.152-1.78 6.172h.01zm5.003-7.654l-2.185-2.166-.707 2.456 2.097 2.075.795-2.365z" fill="#FCD21F"/><path fill-rule="evenodd" clip-rule="evenodd" d="M90.77 131.043l12.366 21.833H78.291l12.48-21.833zm.007-2.895l-14.949 26.15h29.762l-14.813-26.15z" fill="#0B0B09"/></svg>