<svg width="17" height="21" viewBox="0 0 17 21" fill="none" xmlns="http://www.w3.org/2000/svg">
<path d="M7.40217 8.31135L4.75391 6.89062L6.11002 9.69848C6.35702 9.09079 6.81714 8.59667 7.40217 8.31085" fill="white"/>
<path d="M10.8906 11.7441L15.9482 10.8353L10.9496 9.89062C11.0375 10.1632 11.0823 10.4481 11.0823 10.7347C11.0825 11.0804 11.0175 11.423 10.8906 11.7441" fill="white"/>
<path d="M9.49077 8.26448L8.51818 1.36719L7.61328 8.21785C8.22189 7.98952 8.89397 8.00621 9.49077 8.26448Z" fill="white"/>
<path d="M10.8921 9.7281L12.2859 6.94531L9.64453 8.33796C10.2131 8.63333 10.6564 9.12727 10.8921 9.7281Z" fill="white"/>
<path d="M6.15828 11.8828L4.71094 14.6744L7.50175 13.2048C6.90857 12.9459 6.43036 12.4754 6.15828 11.8828" fill="white"/>
<path d="M7.59766 13.2461L8.50405 19.6578L9.38267 13.2494C9.09846 13.3571 8.79739 13.4121 8.49388 13.4118C8.18767 13.412 7.88399 13.3558 7.59766 13.2461" fill="white"/>
<path d="M9.54102 13.1837L12.2334 14.6746L10.857 11.8281C10.598 12.4282 10.1296 12.9108 9.54102 13.1837" fill="white"/>
<path d="M8.49499 13.2227C7.85053 13.2143 7.23564 12.9479 6.78516 12.4818C6.33467 12.0157 6.08537 11.3879 6.09192 10.7362C6.08537 10.0845 6.33468 9.45679 6.78517 8.99072C7.23566 8.52464 7.85055 8.25826 8.49499 8.25C9.13943 8.25826 9.75433 8.52464 10.2048 8.99072C10.6553 9.45679 10.9046 10.0845 10.8981 10.7362C10.9047 11.3879 10.6554 12.0157 10.2049 12.4819C9.75441 12.948 9.13948 13.2144 8.49499 13.2227ZM8.50342 8.46886L6.5766 11.9709H10.4126L8.50342 8.46886Z" fill="white"/>
<path d="M10.0971 11.7789L8.50327 8.85547L6.89453 11.7789H10.0971Z" fill="white"/>
<path d="M5.9061 10.7357C5.90594 10.4293 5.95699 10.1251 6.05708 9.83594L1.0293 10.7863L6.09377 11.7347C5.96953 11.4167 5.90586 11.0777 5.9061 10.7357Z" fill="white"/>
</svg>
