<svg version="1.0" xmlns="http://www.w3.org/2000/svg"
     width="840.000000pt" height="880.000000pt" viewBox="0 0 840.000000 880.000000"
     preserveAspectRatio="xMidYMid meet">

    <g transform="translate(0.000000,880.000000) scale(0.100000,-0.100000)" stroke="none">
        <path d="M2487 8390 c-108 -28 -201 -106 -251 -210 l-31 -65 0 -715 0 -715 28
-60 c37 -79 114 -156 191 -192 52 -23 74 -28 151 -28 82 0 97 3 156 32 80 39
150 111 187 191 l27 57 0 715 0 715 -27 58 c-38 80 -115 158 -189 192 -67 30
-177 41 -242 25z"/>
        <path d="M5737 8390 c-103 -26 -208 -114 -253 -213 l-29 -62 0 -715 0 -715 27
-57 c37 -80 107 -152 187 -191 59 -29 74 -32 156 -32 80 0 97 4 155 31 83 39
145 101 184 184 l31 65 0 715 0 715 -31 65 c-62 129 -178 208 -316 215 -40 3
-90 0 -111 -5z"/>
        <path d="M796 7633 c-236 -50 -442 -220 -536 -441 -64 -152 -60 77 -60 -3167
0 -2652 2 -2954 16 -3023 61 -296 291 -526 586 -586 69 -14 410 -16 3398 -16
2997 0 3328 2 3398 16 286 59 511 276 583 564 12 46 14 539 14 3050 0 2815 -1
2999 -17 3056 -77 269 -267 460 -537 541 -49 15 -128 17 -623 20 l-568 4 0
-250 0 -251 625 0 625 0 0 -3125 0 -3125 -3500 0 -3500 0 0 3125 0 3125 625 0
625 0 0 250 0 250 -542 -1 c-441 0 -556 -3 -612 -16z"/>
        <path d="M3200 7400 l0 -250 1000 0 1000 0 0 250 0 250 -1000 0 -1000 0 0
-250z"/>
        <path d="M1950 5025 l0 -375 500 0 500 0 0 375 0 375 -500 0 -500 0 0 -375z"/>
        <path d="M3700 5025 l0 -375 500 0 500 0 0 375 0 375 -500 0 -500 0 0 -375z"/>
        <path d="M5450 5025 l0 -375 500 0 500 0 0 375 0 375 -500 0 -500 0 0 -375z"/>
        <path d="M1950 3775 l0 -375 500 0 500 0 0 375 0 375 -500 0 -500 0 0 -375z"/>
        <path d="M3700 3775 l0 -375 500 0 500 0 0 375 0 375 -500 0 -500 0 0 -375z"/>
        <path d="M5450 3775 l0 -375 500 0 500 0 0 375 0 375 -500 0 -500 0 0 -375z"/>
        <path d="M1950 2525 l0 -375 500 0 500 0 0 375 0 375 -500 0 -500 0 0 -375z"/>
        <path d="M3700 2525 l0 -375 500 0 500 0 0 375 0 375 -500 0 -500 0 0 -375z"/>
        <path d="M5450 2525 l0 -375 500 0 500 0 0 375 0 375 -500 0 -500 0 0 -375z"/>
    </g>
</svg>