<svg width="182" height="246" viewBox="0 0 182 246" fill="none" xmlns="http://www.w3.org/2000/svg">
<path fill-rule="evenodd" clip-rule="evenodd" d="M76.5021 46.2227C75.3789 46.2227 74.4648 47.127 74.4648 48.2394C74.4648 49.3527 75.3789 50.2588 76.5021 50.2588C77.6244 50.2588 78.5359 49.3527 78.5359 48.2394C78.5359 47.127 77.6244 46.2227 76.5021 46.2227Z" fill="#FCD21F"/>
<path fill-rule="evenodd" clip-rule="evenodd" d="M77.3457 45.1328C77.7375 45.2376 78.1024 45.414 78.4205 45.6466L79.1822 45.1425L77.3457 45.1328Z" fill="#FCD21F"/>
<path fill-rule="evenodd" clip-rule="evenodd" d="M90.1777 40.6289L90.7285 47.6285L91.2762 40.6289H90.1777Z" fill="#FCD21F"/>
<path fill-rule="evenodd" clip-rule="evenodd" d="M91.5434 32.9258H89.9341L89.1289 36.1396L89.9341 39.356H91.5434L92.3492 36.1396L91.5434 32.9258Z" fill="#FCD21F"/>
<path fill-rule="evenodd" clip-rule="evenodd" d="M105.283 54.8992C106.548 54.8992 107.577 53.8779 107.577 52.624C107.577 51.9415 107.264 51.3365 106.781 50.9219C106.266 51.2649 105.647 51.4641 104.98 51.4641C104.473 51.4641 103.994 51.3454 103.565 51.139C103.211 51.5366 102.992 52.0521 102.992 52.624C102.992 53.8779 104.02 54.8992 105.283 54.8992Z" fill="#FCD21F"/>
<path fill-rule="evenodd" clip-rule="evenodd" d="M108.1 44.8398C108.1 44.8398 107.719 45.0131 107.266 45.1026C106.949 45.1644 106.058 45.1766 105.924 45.1505C106.407 45.296 106.843 45.554 107.204 45.8898C107.41 45.4685 107.72 45.1108 108.1 44.8398Z" fill="#FCD21F"/>
<path fill-rule="evenodd" clip-rule="evenodd" d="M89.1291 50.9377C88.6864 51.3842 88.4102 51.9966 88.4102 52.6724C88.4102 54.0385 89.5317 55.1503 90.9082 55.1503C92.2839 55.1503 93.4044 54.0385 93.4044 52.6724C93.4044 51.3061 92.2839 50.1953 90.9082 50.1953C90.2219 50.1953 89.6006 50.471 89.1496 50.9158C89.1431 50.923 89.1357 50.9305 89.1291 50.9377Z" fill="#FCD21F"/>
<path fill-rule="evenodd" clip-rule="evenodd" d="M90.4631 60.9559H91.0189C95.3082 60.9559 98.3817 60.9486 101.504 60.4541L103.542 59.6262C99.3769 59.0521 95.0901 58.7569 90.7969 58.7659C86.5542 58.7552 82.2091 59.0456 78.0781 59.606L80.2826 60.5037C83.3086 60.9526 86.3026 60.9559 90.4631 60.9559Z" fill="#FCD21F"/>
<path fill-rule="evenodd" clip-rule="evenodd" d="M102.297 45.1425L103.057 45.6451C103.377 45.4125 103.74 45.237 104.132 45.1328L102.297 45.1425Z" fill="#FCD21F"/>
<path fill-rule="evenodd" clip-rule="evenodd" d="M97.6035 52.6286C97.6035 53.7402 98.517 54.6445 99.6392 54.6445C100.76 54.6445 101.672 53.7402 101.672 52.6286C101.672 51.5145 100.76 50.6094 99.6392 50.6094C98.517 50.6094 97.6035 51.5145 97.6035 52.6286Z" fill="#FCD21F"/>
<path fill-rule="evenodd" clip-rule="evenodd" d="M74.2793 45.8847C74.6703 45.522 75.1532 45.2528 75.6893 45.117C75.6893 45.117 74.636 45.1454 74.1833 45.0634C73.7275 44.9804 73.3848 44.8438 73.3848 44.8438C73.7635 45.1122 74.0718 45.4675 74.2793 45.8847Z" fill="#FCD21F"/>
<path fill-rule="evenodd" clip-rule="evenodd" d="M111.982 64.2094C112.276 63.8744 112.421 63.3915 112.398 63.0831V63.0807C112.329 62.857 112.283 62.622 112.264 62.3789C109.283 63.045 106.009 63.5508 102.283 64.1688C100.399 65.4139 97.5536 67.0387 93.0273 69.3947L95.0221 69.2132C102.334 68.9904 109.958 66.5232 111.982 64.2094Z" fill="#FCD21F"/>
<path fill-rule="evenodd" clip-rule="evenodd" d="M76.4221 54.6272C77.6856 54.6688 78.7456 53.6832 78.7881 52.4283C78.8078 51.8607 78.6078 51.3434 78.2733 50.9361C77.7618 51.2686 77.1526 51.4621 76.4984 51.4621C75.8409 51.4621 75.2301 51.2669 74.7171 50.9336C74.4146 51.302 74.2243 51.7672 74.2063 52.2778C74.1653 53.5319 75.1588 54.5858 76.4221 54.6272Z" fill="#FCD21F"/>
<path fill-rule="evenodd" clip-rule="evenodd" d="M85.0166 125.935V125.917C86.8234 125.382 88.7328 125.09 90.7111 125.09C92.6621 125.09 94.5478 125.373 96.3308 125.894C96.8358 126.039 97.3318 126.202 97.8181 126.386L93.7198 99.3143L90.7274 79.543L87.7341 99.3093C87.7424 99.311 87.7514 99.3135 87.7613 99.3143L83.6621 126.386C84.1056 126.218 84.5599 126.07 85.0166 125.935Z" fill="#FFFFFE"/>
<path fill-rule="evenodd" clip-rule="evenodd" d="M90.74 57.6877V57.687H90.7498H90.7916H90.8416C90.8268 57.687 90.8105 57.6877 90.7948 57.6877C95.768 57.6755 100.734 58.0667 105.514 58.8295L106.563 58.4042C106.564 57.5202 106.566 55.9402 106.565 55.8662C106.167 56.0223 105.734 56.111 105.281 56.111C104.027 56.111 102.928 55.4529 102.308 54.4675C101.72 55.3051 100.744 55.8572 99.6383 55.8572C97.8428 55.8572 96.3828 54.4097 96.3828 52.6328C96.3828 50.8509 97.8428 49.4051 99.6383 49.4051C100.744 49.4051 101.719 49.9555 102.308 50.7931C102.39 50.6615 102.481 50.5346 102.581 50.4167C102.196 50.0004 101.919 49.4896 101.795 48.9187C98.9488 48.996 96.596 49.6481 94.2233 51.0192C94.4758 51.517 94.6226 52.0774 94.6226 52.6717C94.6226 54.7023 92.956 56.3581 90.908 56.3581C88.8593 56.3581 87.1926 54.7023 87.1926 52.6717C87.1926 52.1359 87.3098 51.6284 87.518 51.169C85.0528 49.6905 82.632 48.9968 79.6781 48.918C79.5848 49.349 79.4028 49.7449 79.156 50.0946C79.3928 50.3688 79.5848 50.6786 79.7273 51.0144C80.2913 50.0532 81.3366 49.4051 82.5343 49.4051C84.329 49.4051 85.789 50.8509 85.789 52.6328C85.789 54.4097 84.329 55.8572 82.5343 55.8572C81.2333 55.8572 80.1103 55.0912 79.592 53.9916C78.9813 55.1253 77.7613 55.8839 76.3825 55.8385C75.6643 55.8149 75.247 55.61 74.9051 55.5107L74.9043 58.3237L76.0963 58.8075C80.8283 58.0619 85.8333 57.6788 90.74 57.6877Z" fill="#FCD21F"/>
<path fill-rule="evenodd" clip-rule="evenodd" d="M84.5739 52.6286C84.5739 51.5145 83.6621 50.6094 82.5374 50.6094C81.4174 50.6094 80.5059 51.5145 80.5059 52.6286C80.5059 53.7402 81.4174 54.6445 82.5374 54.6445C83.6621 54.6445 84.5739 53.7402 84.5739 52.6286Z" fill="#FCD21F"/>
<path fill-rule="evenodd" clip-rule="evenodd" d="M71.3672 33.4719L72.2002 35.4138C72.7387 35.5562 73.2757 35.7195 73.8152 35.9049L74.7752 34.9616L73.3717 31.625L71.3672 33.4719Z" fill="#FCD21F"/>
<path fill-rule="evenodd" clip-rule="evenodd" d="M104.164 32.4483L105.855 34.1261L107.239 30.8309L105.501 29.2305L104.164 32.4483Z" fill="#FCD21F"/>
<path fill-rule="evenodd" clip-rule="evenodd" d="M109.264 35.4154L110.1 33.4717L108.094 31.625L106.691 34.9609L107.654 35.9082C108.192 35.7227 108.729 35.5602 109.264 35.4154Z" fill="#FCD21F"/>
<path fill-rule="evenodd" clip-rule="evenodd" d="M74.2266 30.8318L75.6113 34.1261L77.3018 32.4494L75.9653 29.2305L74.2266 30.8318Z" fill="#FCD21F"/>
<path fill-rule="evenodd" clip-rule="evenodd" d="M76.0684 35.2127L76.9209 37.201C77.2006 37.3369 77.4809 37.471 77.7604 37.6198L79.0066 36.5536L77.7546 33.5391L76.0684 35.2127Z" fill="#FCD21F"/>
<path fill-rule="evenodd" clip-rule="evenodd" d="M75.4334 36.5193L75.2334 36.0469L74.9531 36.3233C75.1137 36.3859 75.2736 36.4535 75.4334 36.5193Z" fill="#FCD21F"/>
<path fill-rule="evenodd" clip-rule="evenodd" d="M106.045 36.5193C106.205 36.4535 106.365 36.3859 106.524 36.3233H106.515L106.235 36.0469L106.045 36.5193Z" fill="#FCD21F"/>
<path fill-rule="evenodd" clip-rule="evenodd" d="M98.5059 39.0485L99.6354 40.1698H99.6454C99.6961 40.1317 99.7479 40.0968 99.8011 40.0601L101.155 36.8544L99.6756 35.5703L98.5059 39.0485Z" fill="#FCD21F"/>
<path fill-rule="evenodd" clip-rule="evenodd" d="M91.873 49.1144C92.5388 49.2924 93.13 49.6461 93.5915 50.126C96.1363 48.645 98.717 47.9131 101.753 47.8269C101.819 47.3163 102.005 46.839 102.283 46.4322L98.6883 44.051C98.6883 44.051 105.635 44.2756 107.033 44.051C108.431 43.8284 108.668 43.3615 108.668 43.3615L102.778 42.0864L112.638 35.8594C105.637 36.6271 98.357 41.2625 91.873 49.1144Z" fill="#FCD21F"/>
<path fill-rule="evenodd" clip-rule="evenodd" d="M110.598 35.0918C110.951 35.0202 111.305 34.9462 111.657 34.8916L110.951 34.25L110.598 35.0918Z" fill="#FCD21F"/>
<path fill-rule="evenodd" clip-rule="evenodd" d="M97.6055 41.7604C97.99 41.4401 98.3777 41.135 98.7665 40.8358L98.118 40.2031L97.6055 41.7604Z" fill="#FCD21F"/>
<path fill-rule="evenodd" clip-rule="evenodd" d="M104.977 50.2586C106.1 50.2586 107.011 49.3527 107.011 48.2394C107.011 47.1268 106.1 46.2227 104.977 46.2227C103.853 46.2227 102.939 47.1268 102.939 48.2394C102.939 49.3527 103.853 50.2586 104.977 50.2586Z" fill="#FCD21F"/>
<path fill-rule="evenodd" clip-rule="evenodd" d="M101.488 38.9179C101.889 38.6624 102.29 38.4153 102.693 38.1818L102.022 37.6094L101.488 38.9179Z" fill="#FCD21F"/>
<path fill-rule="evenodd" clip-rule="evenodd" d="M100.051 34.4578L101.595 35.7989L102.878 32.7078L101.198 31.0391L100.051 34.4578Z" fill="#FCD21F"/>
<path fill-rule="evenodd" clip-rule="evenodd" d="M102.463 36.5576L103.713 37.6262C103.99 37.4797 104.269 37.3455 104.547 37.2097L105.401 35.2164L103.714 33.543L102.463 36.5576Z" fill="#FCD21F"/>
<path fill-rule="evenodd" clip-rule="evenodd" d="M136.95 142.006L144.759 143.485C143.693 138.138 142.221 133.525 140.937 132.46C139.164 132.371 137.535 132.133 136.357 131.109L136.326 131.858C135.706 131.858 135.075 131.84 134.449 131.796C135.559 135.802 136.427 139.397 136.95 142.006Z" fill="#FCD21F"/>
<path fill-rule="evenodd" clip-rule="evenodd" d="M136.058 160.832C136.291 159.668 136.702 151.905 136.673 149.074L129.923 150.301C129.796 152.442 129.381 156.444 129.381 156.444C130.064 159.812 133.029 168.304 133.346 169.219C134.548 167.376 135.367 164.281 136.058 160.832Z" fill="#FCD21F"/>
<path fill-rule="evenodd" clip-rule="evenodd" d="M140.059 175.105C140.103 175.067 140.15 175.027 140.191 174.996C141.508 173.999 143.006 173.228 144.629 172.738C144.903 171.804 145.138 170.825 145.343 169.821C146.65 163.395 146.58 155.666 145.585 148.335C145.568 148.213 145.49 147.696 145.457 147.473L137.764 148.871C137.819 151.464 137.642 154.517 137.373 157.976C137.266 159.335 136.93 161.799 137.03 162.594C137.635 166.765 138.468 169.966 139.585 173.481C139.733 173.954 139.895 174.514 140.059 175.105Z" fill="#FCD21F"/>
<path fill-rule="evenodd" clip-rule="evenodd" d="M132.551 170.219C132.126 168.978 130.98 165.704 130.811 165.223C127.716 163.754 123.845 162.938 119.379 162.465C119.624 162.563 120.226 162.811 120.281 162.834C124.693 164.679 129.082 167.095 132.551 170.219Z" fill="#FCD21F"/>
<path fill-rule="evenodd" clip-rule="evenodd" d="M118.775 152.324L111.275 153.688L114.883 160.826C117.198 159.996 119.274 157.132 118.775 152.324Z" fill="#FCD21F"/>
<path fill-rule="evenodd" clip-rule="evenodd" d="M152.954 109.554C152.659 106.986 143.967 99.2435 143.965 99.25C143.374 100.255 141.202 100.301 138.855 99.7835C139.155 100.096 139.911 101.008 139.875 100.911C143.024 104.137 145.877 107.783 146.447 109.954C149.11 110.823 151.63 111.504 152.49 110.888C152.682 110.751 153.011 110.286 152.954 109.554Z" fill="#FCD21F"/>
<path fill-rule="evenodd" clip-rule="evenodd" d="M124.369 161.917C125.306 161.251 127.345 158.623 128.35 156.187C128.536 154.505 128.708 152.33 128.81 150.496L120.969 151.921C122.503 155.164 123.564 158.75 124.369 161.917Z" fill="#FCD21F"/>
<path fill-rule="evenodd" clip-rule="evenodd" d="M136.604 92.4657C138.247 93.3057 140.317 94.7533 142.463 96.5075C143.46 96.8448 147.815 97.4874 148.775 96.4888C145.499 94.1847 142.018 92.4908 139.184 92.1289C138.211 92.1331 137.354 92.2478 136.604 92.4657Z" fill="#FCD21F"/>
<path fill-rule="evenodd" clip-rule="evenodd" d="M161.389 131.507C161.311 131.283 160.791 129.908 160.549 129.277C157.728 121.825 155.267 115.829 151.704 112.189C150.461 112.259 148.728 111.835 146.355 111.066C146.22 111.424 145.975 111.717 145.629 111.931C144.934 112.356 143.873 112.416 142.562 112.134C145.547 114.774 146.47 116.776 147.533 118.64C149.349 121.817 150.747 126.446 151.345 128.94C153.947 130.651 156.529 132.172 161.389 131.507Z" fill="#FCD21F"/>
<path fill-rule="evenodd" clip-rule="evenodd" d="M145.052 111.008C145.281 110.868 145.382 110.666 145.382 110.355V110.207C144.911 108.444 142.439 105.366 139.7 102.467C139.239 102.832 135.251 102.847 133.287 102.172C133.864 102.891 138.433 108.291 139.62 109.906C142.391 111.265 144.344 111.443 145.052 111.008Z" fill="#FCD21F"/>
<path fill-rule="evenodd" clip-rule="evenodd" d="M143.544 130.602C143.638 131.071 143.714 132.498 143.714 132.498C143.714 132.498 142.627 132.5 142.391 132.498C143.693 134.427 144.993 138.892 145.924 143.704L154.059 145.245C153.196 141.439 151.583 135.672 149.33 132.376C147.255 132.139 145.379 131.565 143.544 130.602Z" fill="#FCD21F"/>
<path fill-rule="evenodd" clip-rule="evenodd" d="M85.9514 78.8985C84.8109 78.3309 83.6379 77.7493 82.4844 77.3086V85.7792C82.9279 86.5151 86.1727 91.6166 87.2532 93.1218L89.1691 80.4077C88.4019 80.0654 86.6991 79.2685 85.9514 78.8985Z" fill="#FCD21F"/>
<path fill-rule="evenodd" clip-rule="evenodd" d="M150.267 129.547C149.542 126.33 146.656 116.038 139.717 111.297C139.5 112.114 139.019 112.543 138.593 112.755C137.879 113.109 136.987 113.171 135.873 112.8C135.52 112.683 134.296 112.039 133.764 111.687C134.12 112.03 134.922 112.675 135.172 112.936C139.04 116.968 141.854 123.108 143.132 128.727L143.237 129.186C145.651 130.663 147.757 131.334 150.689 131.426C150.621 131.264 150.434 130.369 150.267 129.547Z" fill="#FCD21F"/>
<path fill-rule="evenodd" clip-rule="evenodd" d="M154.826 149.245C154.826 149.245 154.567 147.686 154.193 145.891L146.531 147.284C146.558 147.445 146.621 147.805 146.623 147.823C151.97 153.831 155.397 153.197 155.397 153.197C155.397 152.44 154.826 149.245 154.826 149.245Z" fill="#FCD21F"/>
<path fill-rule="evenodd" clip-rule="evenodd" d="M106.797 121.389L111.67 118.916L106.921 115.457L106.797 121.389Z" fill="#FCD21F"/>
<path fill-rule="evenodd" clip-rule="evenodd" d="M149.646 97.1233C148.392 98.2511 146.55 98.1309 144.148 97.8388C148.183 101.36 152.178 105.704 153.902 109.003C156.164 110.124 157.806 110.916 158.676 110.563C159.039 110.413 159.608 109.968 159.569 109.362C158.961 105.727 154.672 100.78 149.728 97.0996C149.782 97.0386 149.718 97.0573 149.646 97.1233Z" fill="#FCD21F"/>
<path fill-rule="evenodd" clip-rule="evenodd" d="M155.09 161.627C155.09 161.166 155.09 160.704 155.083 160.253C155.042 157.498 154.896 156.166 154.723 154.268C152.151 153.87 150.542 152.903 146.84 149.512C147.371 153.989 147.975 161.374 146.597 169.176C146.407 170.25 146.182 171.331 145.912 172.415C146.624 172.268 147.36 172.179 148.108 172.144L148.871 168.948L149.131 168.633L150.08 167.482L148.707 167.985L148.309 168.132L148.385 167.718L149.471 161.745L149.546 161.33L149.868 161.608L150.983 162.571L150.513 161.17L150.383 160.786L150.785 160.859L155.09 161.627Z" fill="#FCD21F"/>
<path fill-rule="evenodd" clip-rule="evenodd" d="M109.322 137.506L120.65 115.988C120.65 115.988 98.8149 126.782 98.8732 126.811C103.453 128.967 107.436 132.805 109.322 137.506Z" fill="#FFFFFE"/>
<path fill-rule="evenodd" clip-rule="evenodd" d="M98.9909 85.7792V77.3086C97.8375 77.7493 96.665 78.3309 95.5237 78.8985C94.6992 79.3059 93.1512 80.0223 92.3027 80.3915L94.2179 93.0974C95.296 91.5994 98.549 86.5143 98.9909 85.7792Z" fill="#FCD21F"/>
<path fill-rule="evenodd" clip-rule="evenodd" d="M99.3223 125.158L104.31 122.653L101.492 118.191L99.3223 125.158Z" fill="#FCD21F"/>
<path fill-rule="evenodd" clip-rule="evenodd" d="M148.632 145.587C148.632 145.587 109.428 137.999 109.45 138.059C110.19 140.15 110.786 142.765 110.786 145.077C110.786 147.689 110.349 150.185 109.43 152.473C109.419 152.501 148.632 145.587 148.632 145.587Z" fill="#FFFFFE"/>
<path fill-rule="evenodd" clip-rule="evenodd" d="M115.092 129.824C116.442 130.699 117.889 130.442 117.981 130.434C117.828 128.771 117.304 127.104 116.979 126.199L115.092 129.824Z" fill="#FCD21F"/>
<path fill-rule="evenodd" clip-rule="evenodd" d="M129.652 140.623L135.796 141.787C135.263 139.201 134.387 135.634 133.283 131.672C131.964 131.489 130.719 131.144 129.713 130.504L129.827 131.431C129.827 131.431 128.184 131.567 127.797 131.633C128.691 134.47 129.319 137.87 129.652 140.623Z" fill="#FCD21F"/>
<path fill-rule="evenodd" clip-rule="evenodd" d="M117.736 124.752C118.22 126.167 118.733 128.066 119.06 129.324C119.892 130.331 122.109 130.727 123.592 130.385C122.719 126.538 121.211 123.214 119.948 120.5L117.736 124.752Z" fill="#FCD21F"/>
<path fill-rule="evenodd" clip-rule="evenodd" d="M111.287 137.139L117.865 138.386C117.77 136.335 117.522 133.432 116.916 131.547C116.452 131.522 115.239 131.154 114.553 130.867L111.287 137.139Z" fill="#FCD21F"/>
<path fill-rule="evenodd" clip-rule="evenodd" d="M118.974 138.606L122.751 139.321C122.621 137.556 121.956 132.562 121.742 131.52C120.875 131.385 120.228 131.282 119.069 130.418C119.09 130.813 119.093 131.324 119.093 131.324C118.888 131.461 118.511 131.458 118.047 131.529C118.646 133.577 118.888 136.563 118.974 138.606Z" fill="#FCD21F"/>
<path fill-rule="evenodd" clip-rule="evenodd" d="M142.532 131.415C142.453 130.735 142.375 129.59 142.132 128.676C139.909 120.324 137.001 115.989 133.316 112.41C132.478 113.255 130.499 113.208 129.034 112.983C128.938 113.243 128.777 113.465 128.289 113.573C132.465 117.386 134.247 122.786 136.029 128.968C136.796 131.257 139.866 131.405 142.532 131.415Z" fill="#FCD21F"/>
<path fill-rule="evenodd" clip-rule="evenodd" d="M78.7891 38.182C79.1906 38.4153 79.5908 38.6626 79.9916 38.9179L79.4489 37.6094L78.7891 38.182Z" fill="#FCD21F"/>
<path fill-rule="evenodd" clip-rule="evenodd" d="M69.8203 34.8915C70.173 34.946 70.5271 35.0201 70.8805 35.0916L70.5173 34.25L69.8203 34.8915Z" fill="#FCD21F"/>
<path fill-rule="evenodd" clip-rule="evenodd" d="M45.8087 182.242C46.5629 181.997 47.7819 181.325 48.4444 180.566C50.6809 178.283 51.7999 175.391 53.3469 172.706C54.807 170.179 56.3097 167.593 58.5002 165.258C52.9847 167.958 48.387 170.802 45.6547 175.743C45.2659 176.427 44.4134 178.187 43.755 179.101C43.1189 179.985 40.9727 181.987 40.9727 181.987C40.9727 181.987 41.5604 182.256 42.3434 182.437C43.127 182.618 44.8617 182.551 45.8087 182.242Z" fill="#FCD21F"/>
<path fill-rule="evenodd" clip-rule="evenodd" d="M62.0988 162.465C57.633 162.937 53.762 163.754 50.6655 165.223C50.4975 165.704 49.3497 168.978 48.9258 170.219C51.7805 167.195 56.7855 164.679 61.1968 162.833C61.2518 162.811 61.8528 162.563 62.0988 162.465Z" fill="#FCD21F"/>
<path fill-rule="evenodd" clip-rule="evenodd" d="M44.8036 149.074C44.7626 151.827 45.1848 159.654 45.4216 160.832C46.1136 164.282 46.9326 167.377 48.1344 169.22C48.4516 168.304 51.4161 159.813 52.1008 156.445C52.1008 156.445 51.6858 152.431 51.5628 150.303L44.8036 149.074Z" fill="#FCD21F"/>
<path fill-rule="evenodd" clip-rule="evenodd" d="M70.2029 153.693L62.6129 152.312C62.0857 157.189 64.2599 160.019 66.5939 160.856L70.2029 153.693Z" fill="#FCD21F"/>
<path fill-rule="evenodd" clip-rule="evenodd" d="M42.9876 178.374C43.4778 177.589 44.3788 175.762 44.8616 174.933C45.7995 173.292 46.4341 172.49 47.7753 171.132C47.7753 171.132 46.7013 169.507 46.3406 168.242C44.5616 169.922 43.4868 172.025 42.6318 174.693C42.3226 175.653 40.7051 180.715 40.7051 180.715C41.0486 180.376 42.371 179.366 42.9876 178.374Z" fill="#FCD21F"/>
<path fill-rule="evenodd" clip-rule="evenodd" d="M70.6908 145.076C70.6908 142.763 71.2867 140.146 72.028 138.055C72.0485 137.995 32.8438 145.586 32.8438 145.586C32.8438 145.586 72.0582 152.5 72.0467 152.471C71.127 150.184 70.6908 147.688 70.6908 145.076Z" fill="#FFFFFE"/>
<path fill-rule="evenodd" clip-rule="evenodd" d="M63.4961 130.435C63.5871 130.443 65.0333 130.7 66.3851 129.825L64.4979 126.199C64.1726 127.106 63.6478 128.773 63.4961 130.435Z" fill="#FCD21F"/>
<path fill-rule="evenodd" clip-rule="evenodd" d="M54.8013 131.771C53.9233 134.507 53.3126 137.746 52.9746 140.401L57.6018 139.525C57.7288 137.661 58.5176 132.483 58.6076 131.593C58.6076 131.593 57.9083 131.55 57.1968 131.388L57.2181 130.785C56.7213 131.141 55.7858 131.605 54.8013 131.771Z" fill="#FCD21F"/>
<path fill-rule="evenodd" clip-rule="evenodd" d="M70.1946 137.139L66.9301 130.867C66.244 131.154 65.029 131.522 64.5666 131.547C63.9598 133.434 63.7263 136.337 63.6328 138.381L70.1946 137.139Z" fill="#FCD21F"/>
<path fill-rule="evenodd" clip-rule="evenodd" d="M57.1117 161.92C57.9136 158.754 58.9711 155.163 60.5042 151.923L52.6602 150.496C52.7627 152.331 52.9439 154.505 53.1307 156.19C54.1342 158.626 56.1747 161.254 57.1117 161.92Z" fill="#FCD21F"/>
<path fill-rule="evenodd" clip-rule="evenodd" d="M30.7871 131.426C33.7186 131.334 35.8249 130.662 38.2391 129.186L38.3434 128.727C39.6206 123.108 42.4351 116.968 46.3038 112.936C46.5539 112.674 47.3548 112.03 47.7114 111.687C47.1801 112.038 45.9536 112.683 45.6029 112.8C44.4886 113.171 43.5966 113.109 42.8826 112.754C42.4556 112.543 41.9759 112.114 41.7586 111.297C34.8189 116.038 31.9339 126.33 31.2092 129.547C31.0421 130.368 30.8526 131.264 30.7871 131.426Z" fill="#FCD21F"/>
<path fill-rule="evenodd" clip-rule="evenodd" d="M57.8867 130.385C59.3697 130.727 61.5865 130.331 62.4202 129.324C62.745 128.067 63.258 126.167 63.7418 124.752L61.529 120.5C60.2675 123.214 58.7605 126.538 57.8867 130.385Z" fill="#FCD21F"/>
<path fill-rule="evenodd" clip-rule="evenodd" d="M48.1897 102.172C46.2279 102.848 42.2379 102.832 41.7772 102.467C39.0382 105.366 36.5655 108.444 36.0957 110.207V110.355C36.0957 110.666 36.1959 110.868 36.4254 111.008C37.1337 111.443 39.0864 111.265 41.8584 109.907C43.0447 108.291 47.6127 102.891 48.1897 102.172Z" fill="#FCD21F"/>
<path fill-rule="evenodd" clip-rule="evenodd" d="M48.1967 131.673C47.0834 135.671 46.1849 139.184 45.6504 141.789L51.8047 140.624C52.1344 137.868 52.7819 134.486 53.6829 131.633C53.2944 131.567 51.6522 131.431 51.6522 131.431L51.7654 130.504C50.7611 131.145 49.5142 131.489 48.1967 131.673Z" fill="#FCD21F"/>
<path fill-rule="evenodd" clip-rule="evenodd" d="M122.314 189.21C122.314 189.21 124.257 189.113 125.605 188.053C127.066 186.906 128.132 184.549 127.205 181.194C126.001 176.832 121.757 171.509 118.854 168.75C118.854 168.75 123.576 177.036 124.173 179.202C124.884 181.78 124.491 183.139 124.132 184.58C123.668 186.447 122.728 188.237 122.314 189.21Z" fill="#FCD21F"/>
<path fill-rule="evenodd" clip-rule="evenodd" d="M135.708 175.743C132.975 170.803 128.501 167.957 122.984 165.258C125.176 167.594 126.679 170.179 128.136 172.706C129.685 175.39 130.681 178.283 132.917 180.566C133.489 181.22 134.47 181.806 135.213 182.114C135.232 182.05 135.249 181.984 135.269 181.921C135.578 180.959 136.391 179.434 137.102 178.309C136.562 177.393 136.003 176.262 135.708 175.743Z" fill="#FCD21F"/>
<path fill-rule="evenodd" clip-rule="evenodd" d="M144.095 194.266C145.373 194.014 145.457 191.89 144.65 190.225C144.099 189.082 142.405 186.575 142.405 186.575L135.878 185.008C135.845 185.395 135.824 185.784 135.824 186.18C135.824 187.475 136.12 189.049 136.482 190.229C139.162 190.168 142.816 194.518 144.095 194.266Z" fill="#FCD21F"/>
<path fill-rule="evenodd" clip-rule="evenodd" d="M151.641 161.914L152.633 165.019L150.209 162.955L149.508 166.81L152.505 165.764L150.418 168.432L154.456 169.155L153.453 165.932L155.874 167.985L156.58 164.107L153.585 165.193L155.599 162.623L151.641 161.914Z" fill="#FCD21F"/>
<path fill-rule="evenodd" clip-rule="evenodd" d="M162.203 130.629C162.404 131.048 162.628 132.373 162.628 132.373C162.628 132.373 160.86 132.668 160.279 132.707C165.974 140.408 167.317 148.939 168.415 153.066C168.936 155.026 170.181 155.991 171.231 156.994C171.656 157.401 173.947 159.769 178.963 161.159C179.477 161.301 180.722 161.476 180.93 161.478C180.438 155.684 179.529 150.795 178.386 146.558C178.278 146.159 178.176 145.753 178.065 145.368C176.94 141.458 175.617 138.132 174.255 135.174C174.225 135.193 173.334 133.461 172.917 132.624C172.917 132.623 172.914 132.621 172.914 132.619C171.838 132.859 170.726 133.032 169.552 133.032C167.345 133.032 164.933 132.44 162.203 130.629Z" fill="#FCD21F"/>
<path fill-rule="evenodd" clip-rule="evenodd" d="M21.914 109.362C21.8748 109.968 22.4445 110.413 22.8076 110.563C23.6766 110.917 25.3195 110.124 27.583 109.003C29.3071 105.705 33.3013 101.36 37.3365 97.839C34.9353 98.1309 33.0915 98.2503 31.8363 97.1233C31.7641 97.0575 31.701 97.0388 31.756 97.0989C26.8116 100.779 22.524 105.727 21.914 109.362Z" fill="#FCD21F"/>
<path fill-rule="evenodd" clip-rule="evenodd" d="M69.8145 118.915L74.6874 121.388L74.5612 115.457L69.8145 118.915Z" fill="#FCD21F"/>
<path fill-rule="evenodd" clip-rule="evenodd" d="M77.168 122.654L82.1574 125.159L80.0579 118.191L77.168 122.654Z" fill="#FCD21F"/>
<path fill-rule="evenodd" clip-rule="evenodd" d="M36.0047 147.473C35.9736 147.704 35.9144 148.183 35.8939 148.337C34.8996 155.668 34.8282 163.397 36.1351 169.824C36.3524 170.821 36.6581 172.347 37.1131 173.644C37.9649 176.075 40.0677 179.685 40.0677 179.685C40.4612 178.323 41.2007 175.286 41.7704 173.482C42.8862 169.968 43.8429 166.767 44.4479 162.596C44.5489 161.801 44.2127 159.338 44.1054 157.979C43.8339 154.487 43.6529 151.495 43.7134 148.874L36.0047 147.473Z" fill="#FCD21F"/>
<path fill-rule="evenodd" clip-rule="evenodd" d="M72.1556 137.506C74.0404 132.808 78.0206 128.973 82.5969 126.815C82.6574 126.785 60.8281 115.988 60.8281 115.988L72.1556 137.506Z" fill="#FFFFFE"/>
<path fill-rule="evenodd" clip-rule="evenodd" d="M62.499 168.75C59.596 171.509 55.3518 176.832 54.1483 181.193C53.2203 184.549 54.2868 186.905 55.7478 188.053C57.0955 189.113 59.0377 189.21 59.0377 189.21C58.6245 188.236 57.685 186.447 57.2202 184.58C56.8627 183.139 56.4692 181.78 57.1792 179.202C57.7768 177.036 62.499 168.75 62.499 168.75Z" fill="#FCD21F"/>
<path fill-rule="evenodd" clip-rule="evenodd" d="M19.4917 155.184C19.9827 154.936 19.968 154.352 19.9017 153.925C19.7885 153.198 19.463 152.214 19.2957 151.802C18.4391 149.676 16.8396 148.351 16.3051 147.898C15.9329 147.583 15.2016 147.349 15.2016 147.349C14.8671 147.261 14.4965 147.281 14.1735 147.411C14.1555 147.419 14.1366 147.427 14.1178 147.436C13.8817 147.542 13.7276 147.669 13.5931 147.928C13.4578 148.186 13.2898 149.09 13.0733 149.287C13.0168 149.338 12.9659 149.372 12.9176 149.39C12.3732 149.609 12.3675 147.896 12.3601 147.864C12.4831 147.741 13.1029 147.498 13.3677 147.189C13.5169 146.981 14.062 146.275 14.0637 145.867C14.0268 145.254 13.1865 145.252 12.5962 145.489C12.5888 145.492 12.5806 145.495 12.5724 145.498C12.4454 145.304 12.2142 145.2 11.9797 145.256C11.9633 145.26 11.9469 145.265 11.9297 145.271C11.6141 145.399 11.1697 145.992 11.1697 145.992C11.7379 144.851 10.8287 143.515 9.58746 143.951L9.0513 142.711L8.29953 143.02L7.54365 143.318L8.02653 144.577C6.82958 145.12 7.11406 146.708 8.32248 147.135C8.32248 147.135 7.5871 147.016 7.27146 147.143C7.25508 147.15 7.23786 147.158 7.22473 147.166C7.01651 147.287 6.92468 147.525 6.96896 147.75C6.96076 147.752 6.95173 147.756 6.94518 147.758C6.35573 147.995 5.75316 148.575 6.15568 149.043C6.44345 149.336 7.33048 149.466 7.583 149.512C7.99208 149.553 8.60696 149.299 8.78076 149.301C8.79798 149.33 9.99491 150.564 9.45055 150.784C9.40381 150.802 9.34316 150.812 9.26608 150.814C8.97341 150.824 8.21918 150.291 7.94043 150.199C7.66253 150.106 7.46085 150.122 7.21818 150.207C7.19851 150.214 7.17965 150.221 7.15998 150.229C6.83861 150.359 6.55741 150.598 6.37868 150.895C6.37868 150.895 6.01796 151.565 5.97206 152.049C5.90565 152.743 5.68593 154.799 6.56151 156.917C6.73203 157.33 7.18703 158.259 7.61578 158.861C7.8683 159.213 8.26673 159.642 8.79388 159.48C8.81026 159.476 8.82831 159.469 8.84716 159.462C9.42186 159.231 10.9369 157.873 10.9935 157.814C11.105 158.148 13.4341 159.862 13.8554 159.817C13.8399 159.88 16.146 158.954 16.0895 158.919C16.4248 158.663 16.8953 155.821 16.7404 155.506C16.8248 155.509 18.8645 155.438 19.44 155.207C19.4589 155.199 19.4752 155.192 19.4917 155.184Z" fill="#FCD21F"/>
<path fill-rule="evenodd" clip-rule="evenodd" d="M46.2256 93.0547C44.8148 93.6206 42.8741 94.877 40.782 96.5085C40.782 96.5085 38.4553 98.7067 38.457 98.7089C38.703 99.1441 41.4731 99.3042 44.9401 97.9519C46.1903 96.7979 47.3013 95.8481 48.0931 95.2584C47.8883 94.7656 47.6291 94.329 47.3103 93.9556C47.0078 93.6011 46.6403 93.3067 46.2256 93.0547Z" fill="#FCD21F"/>
<path fill-rule="evenodd" clip-rule="evenodd" d="M83.0099 163.537C80.0061 162.293 77.3368 160.258 75.2791 157.808C74.1289 156.435 73.1599 154.906 72.4129 153.258C72.3811 153.184 69.3083 159.111 66.3939 164.761L60.7871 174.806L76.1358 167.023L83.0099 163.537Z" fill="#FFFFFE"/>
<path fill-rule="evenodd" clip-rule="evenodd" d="M75.8263 154.301L90.7743 128.152L105.588 154.301H75.8263ZM105.406 156.486C107.876 153.337 109.352 149.38 109.352 145.081C109.352 136.683 103.723 129.572 96.0237 127.288C94.3372 126.789 92.5565 126.516 90.7105 126.516C88.8838 126.516 87.1205 126.784 85.452 127.274C85.4537 127.279 85.4537 127.282 85.4553 127.288C77.7572 129.572 72.125 136.683 72.125 145.081C72.125 149.38 73.6025 153.337 76.0717 156.486C79.4895 160.801 84.7765 163.65 90.7105 163.65C96.6762 163.65 101.991 160.842 105.406 156.486Z" fill="#E7792B"/>
<path fill-rule="evenodd" clip-rule="evenodd" d="M52.0602 184.65C54.1155 174.998 60.1617 169.114 63.9657 166.044L64.8387 164.365L65.926 162.203C64.5585 162.672 63.1665 163.186 61.7735 163.764C61.758 163.77 61.7447 163.777 61.73 163.783C58.1942 166.499 56.293 169.77 54.296 173.234C52.7342 175.94 51.4184 178.956 48.9614 181.412C48.3425 182.049 47.571 182.436 46.5249 182.991L45.7305 188.5C45.7305 188.5 51.598 186.822 52.0602 184.65Z" fill="#FCD21F"/>
<path fill-rule="evenodd" clip-rule="evenodd" d="M90.7722 131.039L78.293 152.872H103.138L90.7722 131.039Z" fill="#0065A3"/>
<path fill-rule="evenodd" clip-rule="evenodd" d="M18.071 161.763L26.8742 177.924C25.7782 173.288 25.2919 167.628 25.3009 162.096C25.3034 161.519 25.3157 160.953 25.3394 160.408C25.4387 158.153 25.4797 156.283 25.6806 154.16L24.9574 154.034C24.9944 153.459 25.1494 152.238 25.1419 152.246C23.4122 153.872 22.1029 154.909 20.7839 155.583C20.5574 155.92 20.2682 156.129 20.0409 156.245C19.9959 156.266 19.9459 156.288 19.8919 156.31C19.4974 156.469 18.4596 156.549 17.8267 156.603C17.816 157.217 17.7488 158.091 17.334 159.248L17.4668 160.737C17.7013 161.16 17.8882 161.458 18.071 161.763Z" fill="#FCD21F"/>
<path fill-rule="evenodd" clip-rule="evenodd" d="M32.0836 186.615L35.9098 173.574C35.5261 172.212 35.1728 170.716 34.8768 169.176C33.4996 161.374 34.1036 153.989 34.6358 149.512C30.9326 152.904 29.3241 153.87 26.7506 154.269C26.5801 156.167 26.4326 157.498 26.3908 160.254C26.3833 160.806 26.3818 161.37 26.3833 161.937C26.3743 169.451 27.2688 177.284 29.4438 182.496L32.0836 186.615Z" fill="#FCD21F"/>
<path fill-rule="evenodd" clip-rule="evenodd" d="M83.3518 40.2031L82.7148 40.8348C83.1016 41.135 83.4894 41.4399 83.8749 41.7604L83.3518 40.2031Z" fill="#FCD21F"/>
<path fill-rule="evenodd" clip-rule="evenodd" d="M80.3145 36.8536L81.6672 40.0512C81.7222 40.0903 81.7795 40.1267 81.8362 40.1698L82.9667 39.0476L81.7967 35.5703L80.3145 36.8536Z" fill="#FCD21F"/>
<path fill-rule="evenodd" clip-rule="evenodd" d="M59.733 131.509C59.5215 132.552 58.8592 137.541 58.7305 139.306L62.5132 138.59C62.6 136.555 62.8352 133.548 63.4288 131.519C62.9657 131.446 62.5885 131.45 62.3827 131.313C62.3827 131.313 62.3869 130.802 62.4065 130.406C61.2472 131.272 60.6022 131.374 59.733 131.509Z" fill="#FCD21F"/>
<path fill-rule="evenodd" clip-rule="evenodd" d="M17.087 146.983L17.1173 147.01C17.7592 147.552 19.4644 148.994 20.4146 151.354C20.6081 151.833 20.9639 152.907 21.0926 153.74C21.1091 153.852 21.1106 153.95 21.1189 154.054C22.2986 153.343 23.6423 152.217 25.3573 150.524C26.3066 143.66 28.1718 137.244 30.8281 132.503C30.5911 132.512 29.4301 132.515 29.4301 132.515C29.4301 132.515 29.6229 131.02 29.7794 130.461C27.8316 131.673 25.6468 132.705 22.4609 132.739C20.2276 136.342 18.2192 138.84 15.9688 146.352C16.2967 146.486 16.7517 146.7 17.087 146.983Z" fill="#FCD21F"/>
<path fill-rule="evenodd" clip-rule="evenodd" d="M79.1683 64.168C75.442 63.55 72.1948 63.0442 69.214 62.3789C69.1926 62.6521 69.1345 62.9124 69.0508 63.1612C69.0525 63.1888 69.0598 63.214 69.0583 63.2426C69.0353 63.55 69.2345 63.8736 69.5288 64.2086C71.5538 66.5224 79.6715 68.7393 86.4425 69.2045L88.4363 69.3939C84.1733 67.3396 81.0858 65.457 79.1683 64.168Z" fill="#FCD21F"/>
<path fill-rule="evenodd" clip-rule="evenodd" d="M78.7028 42.0862L72.813 43.3605C72.813 43.3605 73.3608 43.8404 74.4478 44.051C75.5348 44.2632 82.7935 44.051 82.7935 44.051L79.1945 46.4346C79.4733 46.842 79.656 47.3169 79.7225 47.8252C82.8485 47.9147 85.4925 48.6799 88.1093 50.2527C88.524 49.781 89.057 49.4168 89.6603 49.202C89.6661 49.1987 89.6703 49.1972 89.6743 49.193C83.1765 41.291 75.8678 36.6294 68.8418 35.8594L78.7028 42.0862Z" fill="#FCD21F"/>
<path fill-rule="evenodd" clip-rule="evenodd" d="M134.17 93.9558C133.851 94.329 133.592 94.765 133.387 95.2578C134.179 95.8481 135.29 96.7989 136.541 97.9528C140.007 99.3044 142.777 99.1442 143.024 98.7091C143.025 98.7067 140.697 96.5085 140.697 96.5085C138.605 94.8779 136.665 93.6208 135.256 93.0547C134.839 93.3067 134.473 93.6011 134.17 93.9558Z" fill="#FCD21F"/>
<path fill-rule="evenodd" clip-rule="evenodd" d="M26.6537 149.245C26.6537 149.245 26.084 152.44 26.084 153.197C26.084 153.197 29.51 153.831 34.857 147.823C34.866 147.761 34.9185 147.41 34.938 147.283L27.285 145.891C26.9112 147.686 26.6537 149.245 26.6537 149.245Z" fill="#FCD21F"/>
<path fill-rule="evenodd" clip-rule="evenodd" d="M53.1454 129.218L52.8789 130.551C54.9227 131.089 56.3649 130.102 56.9256 129.543C57.9684 125.962 59.3849 122.323 60.8484 119.191L59.0522 115.742C56.9132 119.399 54.4357 124.755 53.1454 129.218Z" fill="#FCD21F"/>
<path fill-rule="evenodd" clip-rule="evenodd" d="M20.0918 131.507C24.9518 132.172 27.5333 130.651 30.1371 128.94C30.7348 126.446 32.1318 121.817 33.9483 118.64C35.0108 116.776 35.9333 114.774 38.9181 112.134C37.6073 112.416 36.5473 112.356 35.8536 111.931C35.5068 111.717 35.261 111.424 35.1265 111.066C32.7538 111.835 31.02 112.259 29.7755 112.189C26.2133 115.829 23.7548 121.825 20.933 129.277C20.6903 129.908 20.1698 131.283 20.0918 131.507Z" fill="#FCD21F"/>
<path fill-rule="evenodd" clip-rule="evenodd" d="M53.6914 112.736C53.9357 112.945 54.9547 113.158 56.0829 112.933C55.9714 112.871 54.8637 112.101 54.5489 111.867C54.3914 112.001 53.9234 112.528 53.6914 112.736Z" fill="#FCD21F"/>
<path fill-rule="evenodd" clip-rule="evenodd" d="M35.5049 143.708C36.4396 138.828 37.7774 134.446 39.0934 132.498C38.8572 132.501 37.7694 132.498 37.7694 132.498C37.7694 132.498 37.8464 131.071 37.9389 130.602C36.1034 131.565 34.2284 132.139 32.1536 132.376C29.9007 135.672 28.2929 141.429 27.4297 145.236L35.5049 143.708Z" fill="#FCD21F"/>
<path fill-rule="evenodd" clip-rule="evenodd" d="M45.1236 131.109C43.9456 132.133 42.3151 132.372 40.5426 132.46C39.2473 133.538 37.7756 138.058 36.7051 143.482L44.5416 141.999C45.0646 139.372 45.9108 135.837 47.0306 131.797C46.4059 131.841 45.7754 131.858 45.1541 131.858L45.1236 131.109Z" fill="#FCD21F"/>
<path fill-rule="evenodd" clip-rule="evenodd" d="M53.19 113.574C52.7013 113.465 52.5398 113.244 52.4448 112.983C50.9813 113.208 49.0008 113.255 48.1628 112.41C44.4778 115.989 41.5698 120.324 39.3465 128.677C39.1038 129.59 39.025 130.736 38.9473 131.416C41.6116 131.406 44.6818 131.258 45.4508 128.969C47.2323 122.787 49.0146 117.386 53.19 113.574Z" fill="#FCD21F"/>
<path fill-rule="evenodd" clip-rule="evenodd" d="M57.2583 113.867C55.9048 114.213 54.5481 114.009 54.1783 113.992C50.0653 117.648 48.4216 122.613 46.5244 129.186C46.4383 129.514 46.1809 130.601 46.2186 130.768C48.4436 130.747 50.6161 130.276 52.1188 128.837C53.6323 123.608 56.0221 118.22 58.4281 114.537L58.4069 114.497C58.0323 114.292 57.6526 114.084 57.2583 113.867Z" fill="#FCD21F"/>
<path fill-rule="evenodd" clip-rule="evenodd" d="M32.709 96.4888C33.6675 97.4874 38.023 96.8448 39.0192 96.5065C41.1662 94.7525 43.2372 93.305 44.88 92.4657C44.129 92.2478 43.2732 92.1321 42.2992 92.1289C39.4652 92.4901 35.985 94.1847 32.709 96.4888Z" fill="#FCD21F"/>
<path fill-rule="evenodd" clip-rule="evenodd" d="M50.6287 108.168C49.6342 109.324 48.9972 110.325 48.6497 111.089C48.3194 111.814 49.7851 112.167 50.1597 112.228C50.1597 112.228 52.4044 112.459 53.1456 111.758C53.3972 111.531 53.6014 111.293 53.7202 111.196C52.7144 110.367 51.7232 109.184 50.6287 108.168Z" fill="#FCD21F"/>
<path fill-rule="evenodd" clip-rule="evenodd" d="M78.5938 32.7119L79.8777 35.803L81.423 34.4619L80.2745 31.043L78.5938 32.7119Z" fill="#FCD21F"/>
<path fill-rule="evenodd" clip-rule="evenodd" d="M28.9867 110.888C29.8459 111.504 32.3667 110.824 35.0296 109.954C35.5994 107.783 38.4514 104.137 41.6012 100.911C41.5652 101.008 42.3209 100.097 42.6219 99.7842C40.2732 100.301 38.1022 100.255 37.5112 99.25C37.5087 99.2435 28.8177 106.987 28.5219 109.554C28.4661 110.286 28.7957 110.751 28.9867 110.888Z" fill="#FCD21F"/>
<path fill-rule="evenodd" clip-rule="evenodd" d="M42.9219 101.386C43.0604 101.771 46.8979 101.771 48.4826 100.915C48.7179 99.0979 48.7032 97.582 48.4302 96.3516C47.6539 96.9501 43.7727 100.517 42.9219 101.386Z" fill="#FCD21F"/>
<path fill-rule="evenodd" clip-rule="evenodd" d="M42.7606 110.646C42.5007 111.39 43.2499 111.841 43.6469 111.923C44.2494 112.048 45.2864 112.233 47.8107 110.398C48.2952 109.69 49.2502 108.55 49.9504 107.399C48.7132 106.073 48.4214 104.972 48.1434 104.461C46.1644 106.244 43.4139 109.214 42.7606 110.646Z" fill="#FCD21F"/>
<path fill-rule="evenodd" clip-rule="evenodd" d="M123.871 139.526L128.545 140.411C128.204 137.754 127.554 134.498 126.679 131.771C125.695 131.605 124.76 131.141 124.262 130.785L124.283 131.389C123.573 131.55 122.873 131.593 122.873 131.593C122.963 132.49 123.756 137.708 123.871 139.526Z" fill="#FCD21F"/>
<path fill-rule="evenodd" clip-rule="evenodd" d="M84.5867 111.227C83.6555 112.254 80.2277 115.621 80.3 115.546L82.7765 123.308L84.5867 111.227Z" fill="#FCD21F"/>
<path fill-rule="evenodd" clip-rule="evenodd" d="M19.9436 128.8C22.6866 121.556 25.1166 115.682 28.5819 111.885C28.5057 111.844 28.4214 111.813 28.3499 111.762C27.8129 111.379 27.5842 110.812 27.4891 110.261C25.1977 111.389 23.6154 112.07 22.3866 111.567C21.8307 111.339 21.3929 110.882 21.0584 110.176C20.8724 110.273 20.6929 110.374 20.5174 110.471C19.3009 111.145 18.2162 111.725 16.1994 111.814C16.1937 111.823 16.1879 111.834 16.1822 111.843C12.0036 119.117 9.73267 125.24 8.85547 131.574C12.0019 132.262 15.5288 132.258 19.9436 128.8Z" fill="#FCD21F"/>
<path fill-rule="evenodd" clip-rule="evenodd" d="M8.31714 160.693C8.04087 160.659 7.73424 160.556 7.42107 160.344C5.80522 161.234 4.02457 161.961 2.37427 162.322C1.88647 162.429 0.497695 162.566 0.4731 162.569C0.264866 165.344 0.141073 168.3 0.141073 171.505C-0.805818 186.614 3.18342 200.788 7.03739 211.774L10.3937 195.982L10.3831 195.984C8.03677 187.436 7.39402 176.468 8.31714 160.693Z" fill="#FCD21F"/>
<path fill-rule="evenodd" clip-rule="evenodd" d="M6.63732 159.556C6.63567 159.552 6.63322 159.55 6.63076 159.547C6.13969 158.86 5.64124 157.844 5.44284 157.365C4.47136 155.014 4.68532 152.802 4.76484 151.97L4.76894 151.931C4.83371 151.244 5.23296 150.472 5.31167 150.326L5.32642 150.298L5.34282 150.272C5.38954 150.194 5.43874 150.121 5.49204 150.05C5.42234 149.995 5.35429 149.938 5.29199 149.874L5.26412 149.845L5.23871 149.815C4.87142 149.39 4.73616 148.84 4.86732 148.304C5.00751 147.729 5.42316 147.278 5.88309 146.968C5.95277 146.796 6.05114 146.636 6.17412 146.494C6.10607 146.279 6.06509 146.052 6.05361 145.82C6.02737 145.209 6.22249 144.643 6.58894 144.194L6.41432 143.737L5.99049 142.636L7.09724 142.2L7.83589 141.91L8.58767 141.601L9.68704 141.15L10.1568 142.234L10.3511 142.683C10.9299 142.752 11.4677 143.025 11.8751 143.48C12.0317 143.655 12.1604 143.846 12.2621 144.046C12.4498 144.066 12.6335 144.112 12.8048 144.186C13.3516 144.094 13.9673 144.132 14.4699 144.445C14.7593 144.626 14.9691 144.886 15.1036 145.186C16.2866 141.343 18.0943 136.905 21.1965 132.707C20.6168 132.668 18.8493 132.373 18.8493 132.373C18.8493 132.373 19.0732 131.048 19.274 130.629C16.5432 132.439 14.1329 133.032 11.9252 133.032C10.752 133.032 9.63867 132.858 8.56307 132.618C8.56307 132.621 8.56144 132.623 8.56062 132.625C8.14251 133.461 7.25219 135.193 7.22184 135.174C5.86014 138.132 4.53776 141.459 3.41214 145.368C3.30229 145.753 3.19899 146.159 3.09077 146.558C1.94959 150.796 1.03877 155.684 0.546875 161.478C0.75511 161.476 1.99959 161.3 2.51281 161.158C4.18196 160.697 5.54204 160.125 6.63732 159.556Z" fill="#FCD21F"/>
<path fill-rule="evenodd" clip-rule="evenodd" d="M48.1441 93.2396C50.8733 96.2502 48.9048 102.493 49.1886 104.125C49.6846 106.39 52.5153 108.765 54.8141 110.684C55.5454 111.351 58.5436 113.408 60.8276 114.525L68.4183 118.207L75.8638 112.684V121.984L76.2821 122.199L80.3008 115.541L79.4931 102.669C77.4183 106.943 74.5161 109.964 71.1156 111.651C69.3586 112.523 66.5393 113.015 66.5393 113.015C66.5393 113.015 71.7434 104.813 72.0231 104.299C69.9218 105.529 66.1153 106.912 64.5373 107.343C63.6411 107.543 62.3204 107.682 61.0259 107.247C60.6258 107.112 58.3231 106.107 56.1988 103.727C55.0618 102.358 53.6886 100.131 53.4271 98.2743C52.9458 94.8497 51.7416 92.4549 49.8296 90.5486C48.1211 88.849 45.6543 88.4512 45.6536 88.4546C44.2483 88.1455 42.6768 88.1194 40.9453 88.3871C41.0946 89.1092 41.7544 90.247 42.4996 91.0454C45.0371 91.087 46.8938 91.8596 48.1441 93.2396Z" fill="#FCD21F"/>
<path fill-rule="evenodd" clip-rule="evenodd" d="M19.9834 109.527C20.2557 109.375 20.5474 109.217 20.8534 109.059C21.5174 105.525 25.1819 100.995 29.6564 97.3474C27.6522 97.6214 26.0714 97.2546 25.1729 96.2461C20.8352 99.4561 15.5606 104.461 14.4727 110.375C14.6375 110.514 15.1703 110.733 15.8172 110.749C17.8069 110.722 18.7751 110.195 19.9834 109.527Z" fill="#FCD21F"/>
<path fill-rule="evenodd" clip-rule="evenodd" d="M31.6669 95.7695L31.9858 95.6645C35.0806 93.477 38.3666 91.8188 41.2178 91.2235C40.5948 90.4209 40.0561 89.4514 39.8823 88.6367C36.4498 89.6102 31.1126 92.0464 26.0781 95.6069C27.1941 96.7105 29.6101 96.4542 31.6669 95.7695Z" fill="#FCD21F"/>
<path fill-rule="evenodd" clip-rule="evenodd" d="M16.6211 169.535L13.6746 161.019C13.6099 161.008 13.5467 160.995 13.4836 160.974C13.109 160.881 12.5589 160.615 11.6013 159.929C11.3488 159.749 11.1357 159.587 10.952 159.441C10.4601 159.85 9.86493 160.302 9.4214 160.516C8.09165 178.738 9.95838 192.167 11.4382 195.626C12.9573 199.182 15.4848 203.693 15.4848 203.693L17.9065 192.277L18.9092 187.549C17.2556 183.158 16.7112 177.13 16.635 171.626C16.635 171.59 16.6211 169.639 16.6211 169.535Z" fill="#FCD21F"/>
<path fill-rule="evenodd" clip-rule="evenodd" d="M39.9027 205.779C40.3282 205.124 40.247 204.758 40.247 204.758C38.2032 205.929 34.5935 206.828 30.843 206.927C30.843 206.927 30.7035 207.322 31.1855 207.603C31.6677 207.887 34.5215 207.843 35.9922 207.603C37.463 207.362 39.4747 206.435 39.9027 205.779Z" fill="#FCD21F"/>
<path fill-rule="evenodd" clip-rule="evenodd" d="M40.5068 203.308C40.76 202.19 40.2148 202.031 40.2148 202.031C36.3806 202.779 34.2153 202.913 31.3568 202.939C30.8213 202.943 29.813 202.791 29.285 202.487C29.285 202.487 28.5086 203.756 28.7586 204.674C29.0071 205.593 30.2828 205.841 30.2828 205.841C34.7023 205.824 40.2526 204.426 40.5068 203.308Z" fill="#FCD21F"/>
<path fill-rule="evenodd" clip-rule="evenodd" d="M36.293 208.638C36.293 208.638 36.889 212.526 37.7227 213.932C38.5565 215.336 42.5087 217.481 43.2295 217.134C43.5827 216.964 43.891 216.802 44.1207 216.693C44.7372 216.405 44.615 212.255 43.8214 210.742C43.027 209.231 40.2232 206.941 40.2232 206.941C39.296 207.691 37.8712 208.17 36.293 208.638Z" fill="#FCD21F"/>
<path fill-rule="evenodd" clip-rule="evenodd" d="M21.8963 184.634L17.8086 172.801C17.866 175.154 18.0611 177.801 18.339 180.067C18.3374 180.068 18.3357 180.07 18.3341 180.073C18.6481 182.638 19.144 185.065 19.9285 187.154L23.0473 193.342C23.0473 193.342 23.6482 191.057 23.608 190.948C23.176 189.75 21.8963 184.634 21.8963 184.634Z" fill="#FCD21F"/>
<path fill-rule="evenodd" clip-rule="evenodd" d="M35.9848 197.479C35.9848 197.479 32.5325 194.65 32.017 194.688C31.5005 194.728 30.6035 196.499 30.6035 196.499C30.6035 196.499 33.6517 198.073 34.5608 198.061C35.4725 198.05 35.9848 197.479 35.9848 197.479Z" fill="#FCD21F"/>
<path fill-rule="evenodd" clip-rule="evenodd" d="M31.0504 190.773C31.4259 190.109 31.8299 188.398 31.5881 187.717C31.3439 187.036 28.8614 183.463 28.0064 182.131C27.3087 181.041 19.0694 165.796 16.0919 160.281C15.9279 160.353 14.9015 160.764 14.7031 160.834C16.7822 166.739 22.6014 183.292 22.8744 184.33C23.2071 185.595 24.2319 190.165 24.6114 190.76C24.9919 191.351 26.5176 192.219 27.5209 192.309C28.5237 192.399 30.6732 191.433 31.0504 190.773Z" fill="#FCD21F"/>
<path fill-rule="evenodd" clip-rule="evenodd" d="M39.3355 201.097C40.1692 200.741 39.7413 198.293 38.774 198.256H36.899C36.899 198.256 36.0053 199.247 34.6133 199.247C33.2195 199.247 29.874 197.375 29.874 197.375L28.4565 198.174C28.4565 198.174 27.4285 199.579 27.7318 200.35C28.036 201.122 30.4305 201.864 30.9077 201.861C33.5778 201.84 38.5033 201.454 39.3355 201.097Z" fill="#FCD21F"/>
<path fill-rule="evenodd" clip-rule="evenodd" d="M40.5882 199.826C41.331 199.109 41.5712 198.863 42.3385 198.258H40.043C40.525 198.777 40.6037 199.349 40.5882 199.826Z" fill="#FCD21F"/>
<path fill-rule="evenodd" clip-rule="evenodd" d="M71.7638 48.6856C72.641 48.6856 73.3558 47.9789 73.3558 47.1129C73.3558 46.2426 72.641 45.5352 71.7638 45.5352C70.889 45.5352 70.1758 46.2426 70.1758 47.1129C70.1758 47.9789 70.889 48.6856 71.7638 48.6856Z" fill="#FCD21F"/>
<path fill-rule="evenodd" clip-rule="evenodd" d="M72.9248 30.552L71.2583 26.5859C70.8418 26.913 70.4491 27.2577 70.1014 27.6359C69.8079 27.9555 69.5366 28.293 69.2891 28.6507L70.9123 32.4094L72.9248 30.552Z" fill="#FCD21F"/>
<path fill-rule="evenodd" clip-rule="evenodd" d="M73.4414 49.3281C72.9732 49.6761 72.3945 49.8885 71.764 49.8885C71.3557 49.8885 70.968 49.799 70.6172 49.642C71.3122 50.8213 72.0747 51.9525 72.8682 53.0372C72.8682 53.0252 72.9855 53.178 73.1617 53.4138C73.0405 53.0439 72.9774 52.6478 72.9912 52.237C73.0184 51.4141 73.3365 50.6708 73.8407 50.0894C73.6759 49.8559 73.5414 49.6006 73.4414 49.3281Z" fill="#FCD21F"/>
<path fill-rule="evenodd" clip-rule="evenodd" d="M69.0213 46.5304C69.1263 46.0465 69.3568 45.6107 69.6765 45.256L67.7695 42.7383C68.063 44.0443 68.4935 45.3089 69.0213 46.5304Z" fill="#FCD21F"/>
<path fill-rule="evenodd" clip-rule="evenodd" d="M70.0597 33.1902L68.5972 29.8047C67.888 31.1847 67.4667 32.8113 67.3027 34.6776C67.666 34.6881 68.0282 34.6971 68.393 34.7255L70.0597 33.1902Z" fill="#FCD21F"/>
<path fill-rule="evenodd" clip-rule="evenodd" d="M66.8784 104.987C68.1532 104.923 70.3807 104.193 73.1017 102.393L74.8117 101.262C74.8117 101.262 70.0764 109.72 68.9812 111.357C73.5352 109.911 77.2482 105.874 79.5282 99.8307L80.5972 97.5041L81.3637 112.688C82.5157 111.5 83.7864 110.382 84.8324 109.203L86.1982 100.144H86.1974L86.9754 94.9797C85.7022 93.1873 82.559 88.0429 82.4294 87.8242C82.1154 92.8345 80.5054 96.3654 77.5319 98.5823L76.2981 99.5021C76.2981 99.5021 77.2662 96.5516 76.9604 92.8036C76.8367 91.278 76.6022 89.6889 76.3072 88.0835C75.3947 92.8662 73.5657 96.9046 70.2216 97.9683C69.9617 98.4327 69.5164 99.0833 68.6377 100.115C68.6344 100.113 65.6839 103.105 62.1816 104.015C62.1816 104.015 64.4714 105.108 66.8784 104.987Z" fill="#FCD21F"/>
<path fill-rule="evenodd" clip-rule="evenodd" d="M68.662 42.1143L70.5475 44.6059C70.9156 44.4286 71.3273 44.3287 71.7625 44.3287C71.783 44.3287 70.4648 42.8681 70.4648 42.8681L75.824 41.5539L67.2305 36.1328C67.2265 36.333 67.2208 36.5306 67.2233 36.7378L72.725 41.101L68.662 42.1143Z" fill="#FCD21F"/>
<path fill-rule="evenodd" clip-rule="evenodd" d="M67.2871 38.1719C67.3044 38.4199 67.3076 38.6573 67.3306 38.9118C67.3306 39.7152 67.3896 40.5066 67.4978 41.2817L70.3213 40.5782L67.2871 38.1719Z" fill="#FCD21F"/>
<path fill-rule="evenodd" clip-rule="evenodd" d="M73.3351 82.4538C73.5646 79.7254 72.6538 75.5617 72.6538 75.5617L73.6549 76.057C77.1586 77.7964 79.6919 80.9541 81.3899 83.8037V75.7917L82.1104 76.0285C83.5639 76.5082 85.0256 77.2346 86.4391 77.9346C86.8719 78.1494 87.3096 78.3633 87.7499 78.5747C86.4071 76.9701 82.0244 69.6071 82.0244 69.6071L82.0621 69.6031C76.7423 68.8158 70.5936 67.2708 68.6079 65.0011C68.4579 64.8293 68.3399 64.6546 68.2366 64.4766C67.5299 65.2035 66.5183 65.6744 65.4648 65.7753C65.6083 67.5368 66.4404 69.9601 67.2726 71.6013L67.3299 71.7175V74.4833L67.4864 74.7004C67.5151 74.7387 67.5421 74.7784 67.5701 74.8175C68.9301 76.7059 70.0599 78.3641 69.2711 80.2736C69.9516 81.5901 71.4118 84.4283 71.7684 87.5803C72.6464 86.284 73.1589 84.5552 73.3351 82.4538Z" fill="#FCD21F"/>
<path fill-rule="evenodd" clip-rule="evenodd" d="M81.3883 86.0603C79.9635 83.2661 77.6065 79.6797 74.1617 77.5742C74.5075 79.6367 74.5822 81.4819 74.415 83.1125C74.156 85.613 73.318 87.6023 71.954 89.0579C71.8825 91.8042 72.0187 93.5258 70.8242 96.577C73.7575 95.0603 74.9315 90.2998 75.694 85.1105C75.7037 85.0454 75.994 82.2966 76.003 82.2317C76.003 82.2317 77.7385 89.179 78.0033 92.0961C78.1492 93.703 78.1977 95.2555 78.0222 96.7071C80.266 94.392 81.3695 90.8876 81.3883 86.0603Z" fill="#FCD21F"/>
<path fill-rule="evenodd" clip-rule="evenodd" d="M64.8901 64.723C66.4518 64.723 68.1324 63.6894 68.1358 62.1264L60.9434 60.1641C61.9871 62.8045 63.6136 64.723 64.8901 64.723Z" fill="#FCD21F"/>
<path fill-rule="evenodd" clip-rule="evenodd" d="M132.996 100.921C134.581 101.778 138.418 101.778 138.558 101.392C137.706 100.524 133.826 96.9579 133.049 96.3594C132.777 97.5889 132.762 99.1047 132.996 100.921Z" fill="#FCD21F"/>
<path fill-rule="evenodd" clip-rule="evenodd" d="M66.2393 71.9727C65.3859 70.2544 64.5029 67.7033 64.3709 65.7531C62.4049 65.3441 60.4734 62.3791 59.5134 59.6784C57.6671 59.0197 56.1021 58.3365 54.8086 57.625L66.2393 73.008V71.9727Z" fill="#FCD21F"/>
<path fill-rule="evenodd" clip-rule="evenodd" d="M63.2459 70.8064L53.4189 57.5823C53.4189 57.5823 51.1512 56.7602 47.1299 58.3598C43.1867 59.9286 42.6899 64.4313 44.1212 67.8552C44.3089 67.4526 44.5042 67.172 44.8214 66.8476C45.5337 66.1205 46.5422 65.7042 47.9087 65.7488C50.5559 65.8286 52.3227 66.6791 54.0312 67.5005C54.8552 67.8983 55.6372 68.2707 56.5152 68.5692C56.5152 68.5692 61.5712 70.1566 63.2459 70.8064Z" fill="#FCD21F"/>
<path fill-rule="evenodd" clip-rule="evenodd" d="M61.1697 71.2043C59.8244 70.8124 56.7527 69.8038 56.7527 69.8038C56.0377 70.4828 46.2319 70.8408 43.6052 70.4601C40.9784 70.0772 38.9962 68.941 35.9727 67.5391C39.1419 72.503 44.611 75.0435 52.2379 75.1306C53.3012 72.1184 57.0509 71.114 61.1697 71.2043Z" fill="#FCD21F"/>
<path fill-rule="evenodd" clip-rule="evenodd" d="M83.311 62.7525C83.1608 62.7029 82.997 62.646 82.8288 62.5857H82.8273L82.8223 62.585C76.7401 60.4536 59.7895 52.9271 58.3188 52.8091C56.807 52.6872 55.3288 55.096 55.1133 56.5411C59.3861 58.9522 65.616 60.8609 76.8335 62.7729C79.2438 63.0892 81.6368 63.2201 83.311 62.7525Z" fill="#FCD21F"/>
<path fill-rule="evenodd" clip-rule="evenodd" d="M105.192 168.406L99.0217 165.117L98.3881 169.572L98.2109 170.788C107.695 172.488 112.686 177.21 113.167 181.309C114.163 181.335 115.075 181.425 115.905 181.586C115.836 179.816 113.622 174.338 112.673 172.428L105.192 168.406Z" fill="#FCD21F"/>
<path fill-rule="evenodd" clip-rule="evenodd" d="M155.007 193.208C155.114 191.922 152.123 188.911 152.123 188.911L149.4 188.258C149.4 188.258 150.567 190.039 150.624 191.928C150.681 193.815 150.012 195.724 150.012 195.724C151.316 195.579 154.901 194.492 155.007 193.208Z" fill="#FCD21F"/>
<path fill-rule="evenodd" clip-rule="evenodd" d="M152.923 188.551C152.923 188.551 156.376 191.876 156.096 193.257C155.816 194.637 154.512 195.572 152.302 196.266C150.732 196.758 148.725 196.871 148.725 196.871C148.725 196.871 149.566 194.142 149.639 192.007C149.7 190.235 148.271 188.061 147.629 187.326C146.987 186.589 145.132 186.268 143.557 186.389C143.557 186.389 145.631 188.924 146.017 190.567C146.511 192.67 146.145 194.784 144.614 195.329C143.084 195.877 138.187 191.191 136.817 191.372C136.326 191.439 135.97 191.674 135.711 191.946C135.73 191.946 135.75 191.946 135.77 191.946C135.63 192.067 135.514 192.2 135.412 192.343C135.247 192.616 135.16 192.868 135.125 192.988C135.119 193.013 135.109 193.034 135.105 193.059C131.872 193.187 128.509 193.19 127.966 192.717C126.975 191.857 128.293 189.869 129.106 188.972C129.819 188.185 130.698 187.572 130.698 187.572C129.624 187.052 129.077 186.539 128.421 185.309C128.421 185.309 128.163 187.597 125.986 189.046C123.455 190.733 121.679 190.391 121.679 190.391C121.679 190.391 120.607 193.528 120.472 194.442C120.337 195.362 120.943 196.581 121.981 196.697C123.017 196.812 130.4 195.148 132.511 195.388C134.406 195.602 146.717 200.841 149.578 200.769C150.917 200.734 154.462 199.513 155.634 198.653C156.804 197.792 159.18 195.627 159.08 193.881C158.98 192.133 157.146 189.895 157.146 189.895C156.623 188.926 154.243 188.432 152.923 188.551Z" fill="#FCD21F"/>
<path fill-rule="evenodd" clip-rule="evenodd" d="M123.461 181.799C123.499 179.785 122.483 177.73 122.002 177.162L114.24 173.227C115.383 175.849 117.011 180.255 117.011 181.857C117.011 181.857 119.147 182.413 120.43 183.914C121.215 184.834 121.671 185.998 121.811 187.381C122.63 186.029 123.42 184.014 123.461 181.799Z" fill="#FCD21F"/>
<path fill-rule="evenodd" clip-rule="evenodd" d="M115.929 202.974C113.162 199.598 110.38 197.732 107.665 195.241C104.701 192.518 101.892 189.952 99.2509 187.711L99.0664 190.312C106.537 194.989 114.024 206.789 114.274 223.705C116.236 220.241 118.531 216.484 118.579 211.796C118.607 209.119 117.501 204.84 115.929 202.974Z" fill="#FCD21F"/>
<path fill-rule="evenodd" clip-rule="evenodd" d="M122.2 205.896C120.658 205.997 119.35 205.837 117.989 204.719C122.088 213.958 117.598 220.456 115.105 224.396C117.023 224.098 118.935 223.266 120.128 221.971C122.24 219.676 123.081 215.989 122.626 211.01L122.59 210.64L122.928 210.475C125.014 209.594 127.729 207.524 127.809 204.868C127.836 203.983 127.764 203.17 127.439 202.012C126.78 204.719 123.382 205.822 122.2 205.896Z" fill="#FCD21F"/>
<path fill-rule="evenodd" clip-rule="evenodd" d="M99.3457 186.369C102.179 188.739 105.206 191.51 108.408 194.448C111.503 197.291 114.864 200.229 118.06 203.614C122.72 207.661 126.984 202.345 126.859 201.107C126.282 201.643 124.831 202.315 123.171 202.111L123.039 202.093C120.508 201.468 118.396 199.289 116.532 197.367C115.468 196.268 114.461 195.23 113.474 194.559C107.716 194.559 100.356 184.215 99.7227 181.07L99.3457 186.369Z" fill="#FCD21F"/>
<path fill-rule="evenodd" clip-rule="evenodd" d="M98.0419 171.957L97.5779 175.279L93.1566 206.339C97.9649 216.367 100.512 228.49 91.3906 242.267V244.124C91.3923 244.124 91.3947 244.124 91.3971 244.124V245.999C91.4496 245.944 91.5071 245.883 91.5644 245.818C91.6439 245.73 91.7366 245.633 91.8334 245.532C92.0194 245.33 92.2301 245.105 92.4548 244.862C93.2229 244.038 94.1486 243.034 94.7774 242.201C97.0646 239.167 97.5951 238.741 98.1476 237.755C101.841 227.616 104.578 215.539 97.1794 202.677L97.0974 202.534L99.0864 174.487L100.014 176.965C100.796 178.767 102.483 181.797 104.34 182.357C104.569 182.425 104.798 182.47 105.026 182.503C105.028 182.507 105.029 182.51 105.03 182.514C106.364 182.67 107.69 182.285 109.077 181.917C110.047 181.66 111.047 181.405 112.059 181.33C111.425 176.312 104.798 173.228 98.0419 171.957Z" fill="#FCD21F"/>
<path fill-rule="evenodd" clip-rule="evenodd" d="M181.006 162.572C180.982 162.57 179.593 162.432 179.104 162.324C177.124 161.892 174.952 160.935 173.108 159.797C174.109 176.058 173.487 187.277 171.096 195.987L171.086 195.985L174.442 211.778C178.295 200.792 182.284 186.617 181.338 171.508C181.338 168.303 181.214 165.346 181.006 162.572Z" fill="#FCD21F"/>
<path fill-rule="evenodd" clip-rule="evenodd" d="M86.0925 14.5414H95.3697L91.7787 8.08676L98.0702 11.7829V2.74058L91.7714 6.46762L95.3704 0H86.1302L89.6924 6.45949L83.4102 2.74058V11.7674L89.7039 8.09084L86.0925 14.5414Z" fill="#FCD21F"/>
<path fill-rule="evenodd" clip-rule="evenodd" d="M159.9 192.694C160.214 192.209 160.519 191.576 160.76 190.98L158.695 190.484C159.163 190.954 159.9 192.694 159.9 192.694Z" fill="#FCD21F"/>
<path fill-rule="evenodd" clip-rule="evenodd" d="M138.041 178.992C137.043 180.454 136.346 182.131 136.023 183.937L141.841 185.362C144.003 185.091 146.394 185.541 147.647 186.179C148.767 186.749 148.87 187.021 148.87 187.021L151.439 187.604C153.936 187.223 156.912 188.146 157.963 189.187L161.127 189.963C161.498 188.766 161.698 187.494 161.698 186.178C161.698 185.647 161.662 185.126 161.599 184.614L138.041 178.992Z" fill="#FCD21F"/>
<path fill-rule="evenodd" clip-rule="evenodd" d="M163.632 172.04C163.643 171.294 163.346 159.42 163.286 156.138C160.847 155.645 159.151 154.891 156.336 152.246C156.33 152.238 156.485 153.459 156.522 154.034L155.8 154.159C155.999 156.282 156.041 158.153 156.14 160.408C156.161 160.866 156.171 161.34 156.175 161.821L156.802 161.932L157.205 162.004L156.946 162.32L156.013 163.461L157.382 162.951L157.782 162.801L157.706 163.217L156.618 169.2L156.543 169.615L156.222 169.339L155.874 169.041C155.697 171.216 155.484 172.992 155.371 173.75C159.039 175.674 161.753 179.146 162.625 183.291C162.838 182.251 163.004 181.165 163.14 180.058C163.457 177.463 163.59 174.727 163.632 172.04Z" fill="#FCD21F"/>
<path fill-rule="evenodd" clip-rule="evenodd" d="M171.949 158.991C171.009 158.265 170.441 157.904 168.793 155.891C168.09 156.172 166.031 156.322 164.505 156.2C164.544 158.504 164.749 168.723 164.749 168.755C164.771 172.829 164.678 177.232 164.093 181.248C163.821 183.113 163.445 184.895 162.924 186.518C162.909 187.152 162.851 187.778 162.754 188.387L163.328 191.095L165.998 203.687C165.998 203.687 168.527 199.177 170.045 195.621C171.566 192.068 173.499 177.987 171.949 158.991Z" fill="#FCD21F"/>
<path fill-rule="evenodd" clip-rule="evenodd" d="M98.3855 199.824L98.2109 202.287C104.569 213.447 103.55 223.979 100.804 233.217C109.57 226.944 103.158 208.994 98.3855 199.824Z" fill="#FCD21F"/>
<path fill-rule="evenodd" clip-rule="evenodd" d="M63.4935 204.719C62.1327 205.837 60.8235 205.997 59.2805 205.896C58.1 205.822 54.7017 204.719 54.0427 202.012C53.7172 203.17 53.6467 203.983 53.673 204.868C53.7532 207.524 56.4685 209.594 58.5533 210.475L58.8902 210.64L58.8558 211.01C58.4008 215.989 59.2412 219.676 61.3547 221.971C62.5475 223.266 64.4585 224.1 66.376 224.396C63.883 220.456 59.3937 213.958 63.4935 204.719Z" fill="#FCD21F"/>
<path fill-rule="evenodd" clip-rule="evenodd" d="M82.4201 190.313L82.2348 187.711C79.5933 189.953 76.7855 192.519 73.8211 195.241C71.1066 197.733 68.325 199.599 65.5565 202.974C63.9848 204.84 62.8781 209.118 62.9068 211.797C62.9568 216.485 65.2506 220.242 67.2118 223.706C67.4608 206.788 74.9508 194.99 82.4201 190.313Z" fill="#FCD21F"/>
<path fill-rule="evenodd" clip-rule="evenodd" d="M82.7793 195.401L82.5071 191.566C75.3508 196.38 68.3193 208.328 68.2773 224.826L68.2923 224.862C69.722 228.64 71.4058 231.786 73.9923 234.032C68.9553 214.565 74.8016 199.979 82.7793 195.401Z" fill="#FCD21F"/>
<path fill-rule="evenodd" clip-rule="evenodd" d="M83.1454 170.798L82.8896 169.054L82.3682 165.5L77.1271 168.157L68.6814 172.438C67.7336 174.349 65.5209 179.826 65.4512 181.596C66.2792 181.435 67.1942 181.345 68.1894 181.319C68.6714 177.22 73.6609 172.498 83.1454 170.798Z" fill="#FCD21F"/>
<path fill-rule="evenodd" clip-rule="evenodd" d="M59.3489 177.162C58.8669 177.73 57.8529 179.785 57.8896 181.799C57.9299 184.015 58.7219 186.028 59.5384 187.381C59.6794 185.998 60.1351 184.834 60.9206 183.914C62.2029 182.414 64.3392 181.857 64.3392 181.857C64.3392 180.255 65.9674 175.849 67.1094 173.227L59.3489 177.162Z" fill="#FCD21F"/>
<path fill-rule="evenodd" clip-rule="evenodd" d="M82.9487 197.767L82.8667 196.609C75.2825 201.276 70.02 215.935 75.417 235.103C77.2115 236.289 79.38 237.127 82.0945 237.531C81.7772 236.64 81.4665 235.734 81.1705 234.813C69.4585 228.436 78.028 206.874 82.9487 197.767Z" fill="#FCD21F"/>
<path fill-rule="evenodd" clip-rule="evenodd" d="M63.4244 203.603C66.6226 200.218 69.9814 197.28 73.0762 194.437C76.2784 191.498 79.3059 188.727 82.1394 186.357L81.7629 181.059C81.1302 184.204 73.7697 194.547 68.0097 194.547C67.0252 195.219 66.0174 196.259 64.9527 197.356C63.0892 199.279 60.9764 201.456 58.4464 202.082L58.3137 202.101C56.6544 202.303 55.2049 201.632 54.6277 201.095C54.5024 202.334 58.7654 207.649 63.4244 203.603Z" fill="#FCD21F"/>
<path fill-rule="evenodd" clip-rule="evenodd" d="M96.9297 169.53L97.7463 163.803C95.5565 164.622 93.1865 165.072 90.713 165.072C88.2068 165.072 85.8073 164.609 83.5938 163.77L84.366 169.034L85.2358 174.956L90.777 212.702L96.2173 174.529L96.9297 169.53Z" fill="#FFFFFE"/>
<path fill-rule="evenodd" clip-rule="evenodd" d="M98.6162 196.609L98.5332 197.767C103.453 206.876 112.023 228.438 100.311 234.814C100.015 235.736 99.7057 236.642 99.3867 237.533C102.101 237.129 104.27 236.289 106.066 235.104C111.462 215.939 106.2 201.278 98.6162 196.609Z" fill="#FCD21F"/>
<path fill-rule="evenodd" clip-rule="evenodd" d="M92.8736 208.309L91.3906 218.732V240.229C98.6911 228.182 96.9194 217.377 92.8736 208.309Z" fill="#FCD21F"/>
<path fill-rule="evenodd" clip-rule="evenodd" d="M55.3713 189.047C53.193 187.597 52.9365 185.309 52.9365 185.309C52.279 186.54 51.7322 187.052 50.6575 187.572C50.6575 187.572 51.537 188.186 52.2503 188.972C53.0635 189.869 54.3818 191.857 53.3915 192.718C52.4003 193.58 42.0173 192.853 40.1835 192.703C38.3502 192.552 33.0968 191.577 32.254 191.649C31.4113 191.72 29.3863 192.603 28.3805 193.418C27.372 194.233 27.1818 195.816 27.4302 196.539C27.677 197.263 27.9927 197.293 28.5247 197.098C29.0585 196.902 29.4455 196.377 29.4455 196.377C29.4455 196.377 30.7923 193.769 31.7638 193.578C33.0025 193.336 36.3737 196.518 37.4485 196.997C38.5232 197.478 43.1455 197.482 44.2693 197.171C45.3942 196.858 46.951 195.603 48.8447 195.389C50.9567 195.149 58.34 196.812 59.3762 196.696C60.4125 196.581 61.02 195.362 60.8847 194.445C60.7495 193.527 59.6795 190.392 59.6795 190.392C59.6795 190.392 57.903 190.734 55.3713 189.047Z" fill="#FCD21F"/>
<path fill-rule="evenodd" clip-rule="evenodd" d="M90.0881 240.254V218.075L88.6403 208.223C84.5649 217.316 82.7474 228.161 90.0881 240.254Z" fill="#FCD21F"/>
<path fill-rule="evenodd" clip-rule="evenodd" d="M88.3534 206.273L83.8886 175.876L83.3139 171.957C76.5562 173.227 69.9304 176.312 69.2949 181.33C70.3074 181.405 71.3069 181.659 72.2774 181.916C73.7097 182.298 75.0779 182.702 76.4561 182.503C76.6849 182.47 76.9136 182.425 77.1431 182.357C79.0017 181.797 80.6847 178.767 81.4701 176.965L82.3964 174.486L84.3862 202.534L84.3026 202.677C76.9062 215.537 79.6419 227.616 83.3352 237.755C83.8886 238.741 84.4189 239.167 86.7064 242.2C87.5564 243.328 88.9444 244.761 89.7519 245.642C89.8109 245.704 89.8684 245.763 89.9184 245.818C89.9766 245.885 90.0332 245.944 90.0856 245.999V244.124V242.29C80.9282 228.473 83.5197 216.319 88.3534 206.273Z" fill="#FCD21F"/>
<path fill-rule="evenodd" clip-rule="evenodd" d="M98.9763 191.566L98.7051 195.401C106.68 199.977 112.528 214.565 107.49 234.034C110.077 231.786 111.762 228.64 113.191 224.862L113.204 224.826C113.164 208.328 106.133 196.382 98.9763 191.566Z" fill="#FCD21F"/>
<path fill-rule="evenodd" clip-rule="evenodd" d="M80.6747 233.217C77.9292 223.979 76.9085 213.447 83.2687 202.287L83.0942 199.824C78.3219 208.994 71.9085 226.944 80.6747 233.217Z" fill="#FCD21F"/>
<path fill-rule="evenodd" clip-rule="evenodd" d="M66.5996 75.3292L66.3479 74.9819L64.5869 72.6098C59.8296 71.8544 54.0637 72.248 53.1629 75.8197C52.5561 78.2341 52.6864 80.5217 53.5654 82.7752C55.2082 79.118 57.1349 77.0298 61.1421 77.024H61.1584C63.9401 77.024 66.5284 77.8746 68.4146 79.3792C68.6189 78.2617 67.9211 77.1688 66.6947 75.4626C66.6627 75.4171 66.6324 75.3755 66.5996 75.3292Z" fill="#FCD21F"/>
<path fill-rule="evenodd" clip-rule="evenodd" d="M120.537 60.1641C118.452 60.8439 116.057 61.497 113.344 62.1272C113.348 63.6902 115.028 64.723 116.589 64.723C117.865 64.723 119.492 62.8045 120.537 60.1641Z" fill="#FCD21F"/>
<path fill-rule="evenodd" clip-rule="evenodd" d="M116.896 72.6093L115.133 74.9815L114.882 75.3287C114.85 75.3743 114.821 75.4157 114.789 75.4589C114.791 75.4589 114.793 75.4606 114.794 75.4631C113.567 77.1684 112.871 78.2613 113.074 79.3795C114.909 77.915 117.41 77.0772 120.105 77.0325V77.0308C120.178 77.0301 120.25 77.0243 120.323 77.0243H120.327H120.33H120.347V77.0253C124.349 77.0325 126.274 79.12 127.915 82.7748C128.795 80.522 128.925 78.2346 128.318 75.8193C127.418 72.2483 121.652 71.8547 116.896 72.6093Z" fill="#FCD21F"/>
<path fill-rule="evenodd" clip-rule="evenodd" d="M113.74 75.0552C113.739 75.052 113.737 75.0511 113.735 75.0503C113.819 74.9331 113.905 74.8152 113.989 74.6966L114.146 74.4802V71.7129L114.202 71.5973C115.035 69.9562 115.867 67.5329 116.012 65.7713C114.967 65.6706 113.964 65.2086 113.258 64.4922C113.165 64.6597 113.05 64.8265 112.9 64.9972C110.913 67.2685 104.756 68.8137 99.4318 69.6025L99.4523 69.6032C99.4523 69.6032 95.0693 76.9663 93.7266 78.5709C94.1668 78.3593 94.6038 78.1446 95.0366 77.93C96.4508 77.2298 97.9118 76.5044 99.3653 76.0237L100.085 75.7879V83.8006C101.783 80.9503 104.316 77.7926 107.821 76.0531L108.823 75.5578L108.602 76.6452C108.153 78.8668 108.129 80.9007 108.148 82.4499C108.221 84.5708 108.836 86.2802 109.716 87.5764C110.07 84.4245 111.532 81.5854 112.211 80.2697C111.457 78.4423 112.46 76.8426 113.74 75.0552Z" fill="#FCD21F"/>
<path fill-rule="evenodd" clip-rule="evenodd" d="M107.136 83.6091C107.115 83.6223 106.838 80.7954 107.321 77.5742C103.875 79.6789 101.519 83.2651 100.094 86.0603C100.112 90.8868 101.215 94.3918 103.46 96.7063C103.282 95.2376 103.467 92.7336 103.635 91.1438C104.098 87.7143 104.98 84.0434 105.485 82.2308C105.495 82.2959 105.785 85.0454 105.795 85.1105C106.557 90.2988 107.799 95.5686 110.847 96.6974C109.721 93.8583 109.607 91.8042 109.536 89.0579C108.243 87.6778 107.243 85.2152 107.136 83.6091Z" fill="#FCD21F"/>
<path fill-rule="evenodd" clip-rule="evenodd" d="M96.8926 111.227L98.7011 123.308C98.7011 123.308 101.252 115.55 101.249 115.546C100.22 114.516 97.8238 112.254 96.8926 111.227Z" fill="#FCD21F"/>
<path fill-rule="evenodd" clip-rule="evenodd" d="M120.311 71.2043C124.43 71.114 128.18 72.1184 129.242 75.1306C136.87 75.0435 142.339 72.503 145.507 67.5391C142.484 68.941 140.503 70.0772 137.874 70.4601C135.249 70.8408 125.443 70.4828 124.727 69.8038C124.727 69.8038 121.656 70.8124 120.311 71.2043Z" fill="#FCD21F"/>
<path fill-rule="evenodd" clip-rule="evenodd" d="M105.181 88.0837C104.886 89.6883 104.653 91.204 104.535 92.7288C104.244 97.4083 105.181 99.5023 105.181 99.5023L103.948 98.5825C100.976 96.3656 99.3654 92.8345 99.0514 87.8242C98.9202 88.0431 95.7557 93.2094 94.5039 94.9808L95.1081 98.9915L96.6484 109.203C97.6954 110.382 99.0367 111.5 100.186 112.688L100.884 97.5041L101.952 99.8308C104.231 105.873 107.944 109.911 112.5 111.357C111.404 109.72 106.668 101.261 106.668 101.261L108.379 102.393C111.099 104.193 113.328 104.922 114.602 104.988C117.008 105.109 119.299 104.014 119.299 104.014C115.856 103.304 113.807 101.36 112.339 99.4592C112.119 99.1753 111.629 98.3028 111.466 98.0702C107.467 97.2032 106.092 92.8664 105.181 88.0837Z" fill="#FCD21F"/>
<path fill-rule="evenodd" clip-rule="evenodd" d="M114.936 113.019C114.936 113.019 112.117 112.527 110.361 111.655C106.961 109.967 104.057 106.946 101.984 102.673L101.246 115.544L105.195 122.202L105.613 121.987V112.688L113.058 118.211L120.648 114.529C122.933 113.41 125.931 111.355 126.662 110.687C128.962 108.769 131.791 106.394 132.287 104.129C132.571 102.497 130.603 96.2537 133.331 93.2431C134.582 91.8631 136.44 91.0906 138.977 91.0491C139.722 90.2497 140.381 89.1128 140.53 88.3906C138.799 88.1239 137.229 88.149 135.824 88.4581C135.822 88.4549 133.354 88.8525 131.647 90.5521C129.734 92.4576 128.531 94.8542 128.049 98.2779C127.787 100.134 126.415 102.361 125.277 103.731C123.154 106.11 120.851 107.115 120.451 107.25C119.156 107.686 117.834 107.546 116.938 107.346C115.361 106.914 111.554 105.533 109.453 104.302C109.732 104.816 114.936 113.019 114.936 113.019Z" fill="#FCD21F"/>
<path fill-rule="evenodd" clip-rule="evenodd" d="M112.456 46.5103C112.979 45.3001 113.405 44.0486 113.696 42.7539L111.805 45.2505C112.122 45.6042 112.35 46.0345 112.456 46.5103Z" fill="#FCD21F"/>
<path fill-rule="evenodd" clip-rule="evenodd" d="M109.717 45.5352C108.84 45.5352 108.129 46.2426 108.129 47.1129C108.129 47.9789 108.84 48.6856 109.717 48.6856C110.593 48.6856 111.306 47.9789 111.306 47.1129C111.306 46.2426 110.593 45.5352 109.717 45.5352Z" fill="#FCD21F"/>
<path fill-rule="evenodd" clip-rule="evenodd" d="M113.973 41.2758C114.081 40.5018 114.141 39.7113 114.141 38.9086C114.163 38.6564 114.168 38.4215 114.184 38.1758L111.16 40.5749L113.973 41.2758Z" fill="#FCD21F"/>
<path fill-rule="evenodd" clip-rule="evenodd" d="M104.63 62.757C115.849 60.8442 122.094 58.9567 126.367 56.5456C126.153 55.1005 123.947 52.8283 122.988 52.8478C122.027 52.868 103.75 60.8857 98.1445 62.757C99.8638 63.1807 102.027 63.1952 104.63 62.757Z" fill="#FCD21F"/>
<path fill-rule="evenodd" clip-rule="evenodd" d="M117.11 65.7533C116.978 67.7034 116.095 70.2544 115.242 71.9729V73.008L126.674 57.625C125.379 58.3357 123.813 59.0197 121.969 59.6784C121.007 62.3791 119.077 65.345 117.11 65.7533Z" fill="#FCD21F"/>
<path fill-rule="evenodd" clip-rule="evenodd" d="M108.036 49.3281C107.941 49.5916 107.813 49.8404 107.654 50.0673C108.352 50.7024 108.794 51.6083 108.794 52.6217C108.794 52.673 108.787 52.7258 108.786 52.777C109.438 51.8718 110.065 50.935 110.651 49.9665C110.716 49.8681 110.783 49.7591 110.851 49.6477C110.504 49.8005 110.121 49.8875 109.716 49.8875C109.086 49.8875 108.504 49.6786 108.036 49.3281Z" fill="#FCD21F"/>
<path fill-rule="evenodd" clip-rule="evenodd" d="M124.964 68.5656C125.84 68.2672 126.623 67.8948 127.447 67.4972C129.156 66.675 130.922 65.825 133.568 65.7455C134.936 65.6999 135.957 66.0341 136.77 66.7237C137.087 66.9937 137.239 67.1743 137.427 67.5767C138.523 63.4237 138.046 59.6169 134.349 58.3565C130.651 57.0967 128.059 57.579 128.059 57.579L118.232 70.8029C119.908 70.153 124.964 68.5656 124.964 68.5656Z" fill="#FCD21F"/>
<path fill-rule="evenodd" clip-rule="evenodd" d="M134.678 188.192C134.66 188.145 134.647 188.095 134.626 188.05L134.741 188.095C134.652 187.467 134.603 186.825 134.603 186.172C134.603 185.457 134.7 184.428 134.896 183.407L134.836 182.99C133.79 182.435 133.018 182.047 132.4 181.411C129.942 178.955 128.749 175.939 127.187 173.233C125.191 169.77 123.29 166.498 119.754 163.782C119.739 163.776 119.725 163.769 119.711 163.763C118.316 163.185 116.925 162.671 115.559 162.203L116.558 164.436L117.397 166.043C121.201 169.113 127.244 174.997 129.3 184.649C129.646 186.272 133 187.615 134.678 188.192Z" fill="#FCD21F"/>
<path fill-rule="evenodd" clip-rule="evenodd" d="M120.629 119.187C122.092 122.319 123.509 125.958 124.551 129.539C125.113 130.098 126.554 131.085 128.598 130.548L128.332 129.214C127.041 124.751 124.564 119.395 122.424 115.738L120.629 119.187Z" fill="#FCD21F"/>
<path fill-rule="evenodd" clip-rule="evenodd" d="M111.223 42.9713C111.223 42.9713 109.696 44.3212 109.716 44.3212C110.153 44.3212 110.563 44.4229 110.932 44.5994L112.818 42.1076L108.755 41.0943L114.247 36.7388V36.7313C114.248 36.5272 114.244 36.3305 114.239 36.1328L105.578 41.623L111.223 42.9713Z" fill="#FCD21F"/>
<path fill-rule="evenodd" clip-rule="evenodd" d="M123.072 114.497L123.051 114.537C125.457 118.22 127.846 123.607 129.359 128.836C130.863 130.275 133.035 130.746 135.26 130.768C135.297 130.601 135.039 129.514 134.955 129.185C133.057 122.612 131.412 117.647 127.301 113.992C126.932 114.009 125.573 114.212 124.221 113.867C123.826 114.083 123.445 114.292 123.072 114.497Z" fill="#FCD21F"/>
<path fill-rule="evenodd" clip-rule="evenodd" d="M120.573 174.806L114.965 164.762C112.051 159.111 109.102 153.185 109.07 153.258C108.323 154.907 107.353 156.435 106.203 157.809C104.214 160.185 101.682 162.1 98.8125 163.365L106.222 167.313L120.573 174.806Z" fill="#FFFFFE"/>
<path fill-rule="evenodd" clip-rule="evenodd" d="M75.5236 28.1561L74.1896 24.9414C73.4634 25.2318 72.7836 25.5571 72.1738 25.9368L73.7814 29.7623L75.5236 28.1561Z" fill="#FCD21F"/>
<path fill-rule="evenodd" clip-rule="evenodd" d="M133.67 110.397C136.194 112.233 137.23 112.048 137.834 111.922C138.231 111.84 138.981 111.389 138.72 110.645C138.067 109.214 135.317 106.244 133.336 104.461C133.059 104.971 132.767 106.073 131.529 107.399C132.23 108.55 133.185 109.69 133.67 110.397Z" fill="#FCD21F"/>
<path fill-rule="evenodd" clip-rule="evenodd" d="M127.758 111.196C127.875 111.293 128.08 111.531 128.331 111.758C129.072 112.458 131.317 112.228 131.317 112.228C131.693 112.167 133.16 111.814 132.828 111.089C132.48 110.326 131.844 109.324 130.85 108.168C129.754 109.184 128.763 110.367 127.758 111.196Z" fill="#FCD21F"/>
<path fill-rule="evenodd" clip-rule="evenodd" d="M148.763 173.344C144.724 173.344 141.118 175.18 138.746 178.056L161.408 183.463C160.152 177.679 154.969 173.344 148.763 173.344Z" fill="#FCD21F"/>
<path fill-rule="evenodd" clip-rule="evenodd" d="M165.284 111.814C163.266 111.724 162.182 111.145 160.964 110.471C160.79 110.373 160.611 110.273 160.425 110.176C160.089 110.882 159.652 111.339 159.097 111.566C157.868 112.07 156.285 111.388 153.993 110.261C153.898 110.811 153.669 111.379 153.133 111.762C153.061 111.813 152.977 111.844 152.9 111.885C156.367 115.682 158.797 121.555 161.539 128.8C165.954 132.258 169.481 132.262 172.626 131.574C171.75 125.24 169.48 119.116 165.301 111.843C165.294 111.834 165.29 111.823 165.284 111.814Z" fill="#FCD21F"/>
<path fill-rule="evenodd" clip-rule="evenodd" d="M161.911 154.794C162.297 154.92 163.426 155.142 163.801 155.183C164.202 155.226 166.922 155.517 167.698 155.081C167.632 154.693 167.318 153.314 167.261 153.063C164.257 140.022 161.813 137.25 159.019 132.739C155.834 132.705 153.649 131.674 151.7 130.461C151.856 131.021 152.05 132.516 152.05 132.516C152.05 132.516 150.888 132.512 150.652 132.504C153.307 137.245 155.173 143.661 156.122 150.524C158.629 153.001 160.35 154.279 161.911 154.794Z" fill="#FCD21F"/>
<path fill-rule="evenodd" clip-rule="evenodd" d="M151.82 97.3403C156.295 100.987 159.958 105.517 160.623 109.052C160.928 109.209 161.218 109.367 161.493 109.52C162.701 110.188 163.67 110.715 165.66 110.741C166.305 110.726 166.839 110.506 167.004 110.368C165.916 104.453 160.64 99.449 156.304 96.2383C155.405 97.2476 153.824 97.6143 151.82 97.3403Z" fill="#FCD21F"/>
<path fill-rule="evenodd" clip-rule="evenodd" d="M149.492 95.6647L149.811 95.7695C151.869 96.4542 154.284 96.7097 155.401 95.6069C150.366 92.0466 145.029 89.6102 141.596 88.6367C141.422 89.4516 140.884 90.4209 140.262 91.2235C143.11 91.8188 146.399 93.477 149.492 95.6647Z" fill="#FCD21F"/>
<path fill-rule="evenodd" clip-rule="evenodd" d="M137.861 177.219C138.029 177.016 138.572 176.47 139.127 175.945C138.947 175.379 138.8 174.921 138.727 174.693C138.158 172 136.92 169.922 135.141 168.242C134.781 169.507 133.645 171.228 133.645 171.228C134.986 172.585 135.558 173.292 136.496 174.932C136.819 175.488 137.33 176.487 137.778 177.325C137.806 177.289 137.834 177.249 137.861 177.219Z" fill="#FCD21F"/>
<path fill-rule="evenodd" clip-rule="evenodd" d="M149.246 172.146C151.055 172.206 152.779 172.6 154.355 173.272C154.463 172.518 154.663 170.962 154.746 170.183L149.829 169.352L149.246 172.146Z" fill="#FCD21F"/>
<path fill-rule="evenodd" clip-rule="evenodd" d="M126.931 111.867C126.617 112.101 125.508 112.871 125.398 112.932C126.525 113.158 127.545 112.946 127.788 112.736C127.556 112.528 127.088 112.001 126.931 111.867Z" fill="#FCD21F"/>
<path fill-rule="evenodd" clip-rule="evenodd" d="M86.8906 26.1523L87.3408 28.6718L87.9236 26.9428L86.8906 26.1523Z" fill="#FCD21F"/>
<path fill-rule="evenodd" clip-rule="evenodd" d="M88.3942 34.5764L88.9172 32.4864L87.6973 30.668L88.3942 34.5764Z" fill="#FCD21F"/>
<path fill-rule="evenodd" clip-rule="evenodd" d="M91.6804 31.8447L93.2609 29.4888L92.5207 27.2891H88.9602L88.2207 29.4888L89.8022 31.8447H91.6804Z" fill="#FCD21F"/>
<path fill-rule="evenodd" clip-rule="evenodd" d="M85.4219 17.9023L85.6671 19.2824L86.5926 17.9023H85.4219Z" fill="#FCD21F"/>
<path fill-rule="evenodd" clip-rule="evenodd" d="M88.7324 21.5147H92.7494L94.9981 20.028L93.5734 17.9023H87.9109L86.4844 20.028L88.7324 21.5147Z" fill="#FCD21F"/>
<path fill-rule="evenodd" clip-rule="evenodd" d="M89.2281 46.9959L87.4516 40.8242L85.2773 42.976C86.6186 44.1893 87.9386 45.5329 89.2281 46.9959Z" fill="#FCD21F"/>
<path fill-rule="evenodd" clip-rule="evenodd" d="M85.9766 20.9961L86.4651 23.7424L87.6736 22.1216L85.9766 20.9961Z" fill="#FCD21F"/>
<path fill-rule="evenodd" clip-rule="evenodd" d="M80.4534 23.6211C79.9467 23.656 79.4647 23.7146 78.9844 23.7749L79.2934 24.6905L80.4534 23.6211Z" fill="#FCD21F"/>
<path fill-rule="evenodd" clip-rule="evenodd" d="M78.1434 31.6159L79.8887 29.8828L78.7942 26.625L76.8242 28.4402L78.1434 31.6159Z" fill="#FCD21F"/>
<path fill-rule="evenodd" clip-rule="evenodd" d="M78.4142 25.5037L77.8879 23.9375C76.9344 24.101 76.0367 24.3059 75.2129 24.5694L76.3786 27.3791L78.4142 25.5037Z" fill="#FCD21F"/>
<path fill-rule="evenodd" clip-rule="evenodd" d="M85.0115 41.707L87.1095 39.6317L86.4027 37.1758L84.2188 39.3421L85.0115 41.707Z" fill="#FCD21F"/>
<path fill-rule="evenodd" clip-rule="evenodd" d="M96.0553 17.9023H94.8828L95.8093 19.2824L96.0553 17.9023Z" fill="#FCD21F"/>
<path fill-rule="evenodd" clip-rule="evenodd" d="M83.8285 38.1895L86.0545 35.9808L85.1083 32.6953L82.6875 34.7927L83.8285 38.1895Z" fill="#FCD21F"/>
<path fill-rule="evenodd" clip-rule="evenodd" d="M82.3132 33.6832L84.775 31.5476L83.661 27.6758L81.1367 30.1806L82.3132 33.6832Z" fill="#FCD21F"/>
<path fill-rule="evenodd" clip-rule="evenodd" d="M80.7528 29.0264L83.3188 26.4792L82.4695 23.5312C82.3538 23.5322 82.2498 23.5435 82.135 23.5452L79.6738 25.8124L80.7528 29.0264Z" fill="#FCD21F"/>
<path fill-rule="evenodd" clip-rule="evenodd" d="M98.7803 34.8004L96.361 32.7031L95.4141 35.9885L97.6408 38.1973L98.7803 34.8004Z" fill="#FCD21F"/>
<path fill-rule="evenodd" clip-rule="evenodd" d="M103.328 31.6159L104.647 28.4402L102.677 26.625L101.582 29.8828L103.328 31.6159Z" fill="#FCD21F"/>
<path fill-rule="evenodd" clip-rule="evenodd" d="M102.484 23.7747C102.005 23.7153 101.524 23.6568 101.016 23.6211L102.176 24.6905L102.484 23.7747Z" fill="#FCD21F"/>
<path fill-rule="evenodd" clip-rule="evenodd" d="M101.795 25.8124L99.3342 23.5452C99.2194 23.5435 99.1154 23.532 98.9989 23.5312L98.1504 26.4785L100.716 29.0264L101.795 25.8124Z" fill="#FCD21F"/>
<path fill-rule="evenodd" clip-rule="evenodd" d="M100.331 30.1806L97.8072 27.6758L96.6914 31.5467L99.154 33.6832L100.331 30.1806Z" fill="#FCD21F"/>
<path fill-rule="evenodd" clip-rule="evenodd" d="M110.556 32.4094L112.179 28.6507C111.93 28.2938 111.659 27.9555 111.366 27.6367C111.017 27.2585 110.626 26.9137 110.209 26.5859L108.543 30.552L110.556 32.4094Z" fill="#FCD21F"/>
<path fill-rule="evenodd" clip-rule="evenodd" d="M107.689 29.7623L109.296 25.9368C108.688 25.5571 108.007 25.2326 107.282 24.9414L105.947 28.1561L107.689 29.7623Z" fill="#FCD21F"/>
<path fill-rule="evenodd" clip-rule="evenodd" d="M106.257 24.5694C105.434 24.3059 104.536 24.101 103.583 23.9375L103.057 25.5037L105.091 27.3791L106.257 24.5694Z" fill="#FCD21F"/>
<path fill-rule="evenodd" clip-rule="evenodd" d="M90.7517 22.6445H90.7297L88.7645 22.6794L87.0117 24.8629L88.7539 26.2023H92.7277L94.4705 24.8629L92.7185 22.6794L90.7517 22.6445Z" fill="#FCD21F"/>
<path fill-rule="evenodd" clip-rule="evenodd" d="M94.1369 28.6718L94.5869 26.1523L93.5547 26.9428L94.1369 28.6718Z" fill="#FCD21F"/>
<path fill-rule="evenodd" clip-rule="evenodd" d="M113.078 34.7248H113.088C113.448 34.6963 113.809 34.6874 114.167 34.6767C114.002 32.8103 113.583 31.184 112.873 29.8047L111.41 33.1894L113.078 34.7248Z" fill="#FCD21F"/>
<path fill-rule="evenodd" clip-rule="evenodd" d="M93.0843 34.5764L93.7813 30.668L92.5605 32.4864L93.0843 34.5764Z" fill="#FCD21F"/>
<path fill-rule="evenodd" clip-rule="evenodd" d="M95.0127 23.7424L95.503 20.9961L93.8223 22.1224L95.0127 23.7424Z" fill="#FCD21F"/>
<path fill-rule="evenodd" clip-rule="evenodd" d="M92.25 46.9959C93.5405 45.5329 96.3082 42.8686 96.1902 42.976L94.0192 40.8242L92.2402 46.9959H92.25Z" fill="#FCD21F"/>
<path fill-rule="evenodd" clip-rule="evenodd" d="M97.2528 39.3423L95.0679 37.1758L94.3613 39.6317L96.4583 41.7072L97.2528 39.3423Z" fill="#FCD21F"/>
<path fill-rule="evenodd" clip-rule="evenodd" d="M90.7703 131.043L103.136 152.876H78.2911L90.7703 131.043ZM90.7768 128.148L75.8281 154.298H105.59L90.7768 128.148Z" fill="#0B0B09"/>
</svg>
